<svg id="Layer_1" data-name="Layer 1" xmlns="http://www.w3.org/2000/svg" xmlns:xlink="http://www.w3.org/1999/xlink" viewBox="0 0 188.64 187.97"><defs><style>.cls-1{fill:url(#radial-gradient);}.cls-2{fill:#e84b35;}.cls-10,.cls-11,.cls-12,.cls-13,.cls-14,.cls-15,.cls-16,.cls-17,.cls-18,.cls-19,.cls-2,.cls-20,.cls-21,.cls-22,.cls-23,.cls-24,.cls-3,.cls-4,.cls-5,.cls-6,.cls-7,.cls-8,.cls-9{fill-rule:evenodd;}.cls-3{fill:#bcc2c6;}.cls-4{fill:#ebeff0;}.cls-5{fill:#c13824;}.cls-6{fill:#33495f;}.cls-8{fill:#21ca6d;}.cls-9{fill:#2e98dd;}.cls-10{fill:#2178b6;}.cls-11{fill:#1d69a1;}.cls-12{fill:#32abfb;}.cls-13{fill:#2c96dd;}.cls-14{fill:#fefefe;}.cls-15{fill:#32aafa;}.cls-16{fill:#abb3ba;}.cls-17{fill:#2c96dc;}.cls-18{fill:#a8b1b8;}.cls-19{fill:#2c97dd;}.cls-20{fill:#206ba3;}.cls-21{fill:#1f6ba3;}.cls-22{fill:#2572aa;}.cls-23{fill:#3098de;}.cls-24{fill:#34acfb;}</style><radialGradient id="radial-gradient" cx="94.32" cy="94.32" r="94.32" gradientTransform="translate(94.32 -39.07) rotate(45)" gradientUnits="userSpaceOnUse"><stop offset="0" stop-color="#fff"/><stop offset="0.16" stop-color="#d2eae3"/><stop offset="0.37" stop-color="#9fd1c2"/><stop offset="0.56" stop-color="#77bea9"/><stop offset="0.74" stop-color="#5ab096"/><stop offset="0.89" stop-color="#48a88b"/><stop offset="1" stop-color="#42a587"/></radialGradient></defs><title>Artboard 11</title><circle class="cls-1" cx="94.32" cy="94.32" r="94.32" transform="translate(-39.07 94.32) rotate(-45)"/><path class="cls-2" d="M34.2,31.24c0-1.35.08-2.69,0-4a1.62,1.62,0,0,1,1.48-1.92c1.09-.76,2.33-.49,3.51-.51,1.63,0,3.26-.07,4.88,0,2.21,0,4.41-.07,6.62,0,1.5,0,3-.09,4.52,0,3.54-.08,7.09-.08,10.63,0,8.65-.08,17.31,0,26,0a5.17,5.17,0,0,1,3,.46,2.94,2.94,0,0,1,.55,2.06c0,3.4.07,6.79,0,10.18.1,8.15,0,16.29,0,24.43A3.34,3.34,0,0,1,95,63.82c-.79.78-1.81.63-2.77.64-3.66,0-7.33,0-11,0a13.64,13.64,0,0,0-2,.24c-.59.09-.77-.29-.86-.77.83-7.65,2-15.26,3-22.89C81.75,38,81.8,38,78.76,38c-2,0-3.91.06-5.86,0a2.21,2.21,0,0,0-2.57,2q-2.81,10.74-5.7,21.44a8.17,8.17,0,0,1-.78,2.24,1.73,1.73,0,0,1-.77.62,115.36,115.36,0,0,1-14.64.1,1.68,1.68,0,0,1-.56-.26c-.63-.94,0-1.77.29-2.58,2.83-7.15,5.7-14.29,8.55-21.43.81-2,.76-2.11-1.48-2.11s-4.64,0-7,0a2.59,2.59,0,0,0-2.6,1.58C42.6,45.27,39.51,51,36.48,56.8a56.14,56.14,0,0,1-4,7,2,2,0,0,1-.82.49,123.23,123.23,0,0,1-14.51,0c-.84-.27-.72-.84-.45-1.45a11.59,11.59,0,0,1,1.06-1.71q6.52-9.81,13.07-19.61c1.76-2.64,3.58-5.26,2.95-8.72A2.46,2.46,0,0,1,34.2,31.24Z"/><path class="cls-3" d="M165.61,143.6c.25.85.51,1.7.76,2.55-.94.82-2.09.57-3.17.58H118.42q-45.78,0-91.57,0c-1.2,0-2.47.31-3.54-.57l-.09-.39a3.47,3.47,0,0,1,.52-2.27c1-2.44,2-4.88,2.84-7.35,1.64-4,3.29-8.06,4.81-12.14.56-1.48,1.15-3,1.74-4.41a2.56,2.56,0,0,1,1.68-1.79,13.07,13.07,0,0,1,2.93-.16q57.08,0,114.17,0a14.36,14.36,0,0,1,2.93.14,2.53,2.53,0,0,1,1.69,1.77c.59,1.47,1.21,2.94,1.75,4.43,1.33,3.74,2.93,7.38,4.39,11.08.81,2.15,1.61,4.31,2.48,6.44A3.57,3.57,0,0,1,165.61,143.6Z"/><path class="cls-4" d="M23.31,146.15H166.37a1.1,1.1,0,0,1,0,.18c.57,5.86-1.37,8.39-7.5,7.89a9,9,0,0,0-1.27.05c-1.45.89-3.06.42-4.59.51a22.47,22.47,0,0,1-3.07,0c-2,0-3.94.06-5.91,0-2.21,0-4.41.06-6.61,0s-4.42.06-6.63,0c-2.6,0-5.19.08-7.78,0q-28,.11-56,0c-2.59.09-5.19,0-7.78,0-2.21.07-4.42,0-6.63,0s-4.41,0-6.61,0c-2,.05-3.95,0-5.93,0s-3.86,0-5.79,0a2.9,2.9,0,0,1-1.89-.51c-1.14,0-2.29-.13-3.42,0a6,6,0,0,1-4.64-1.55C22.91,150.69,23.21,148.4,23.31,146.15Z"/><path class="cls-5" d="M155.44,26.08q0,4.05,0,8.09a3.14,3.14,0,0,1,0,3.43,4.12,4.12,0,0,1-2.46.45c-3.22,0-6.43,0-9.65,0-4,.06-8.07,0-12.11,0s-7.84.07-11.76,0q-6.06.1-12.12,0c-3.47.1-6.94,0-10.41,0a2.86,2.86,0,0,1-2.06-.54q0-6,0-12.09c.83-.87,1.92-.64,2.93-.64,8.78,0,17.57-.07,26.35,0,3.54-.05,7.09-.07,10.63,0,1.51-.09,3,0,4.52,0,2.21-.08,4.42-.05,6.63,0s4.35,0,6.53,0a2.86,2.86,0,0,1,1.88.51A2.17,2.17,0,0,1,155.44,26.08Z"/><path class="cls-4" d="M94.86,37.5h12.38c1.15,1.58.94,3.5,1.18,5.27.85,6.29,1.75,12.58,2.52,18.88.1.84.34,1.7-.37,2.43-.23.07.08,0-.16.08a74.29,74.29,0,0,1-15.35,0l-.26-.24Z"/><path class="cls-4" d="M32.4,63.54q6.68-12.6,13.35-25.21a1.42,1.42,0,0,1,1.42-.88c3.6,0,7.2,0,11.08,0L47.76,63.9a2.87,2.87,0,0,1-2.24.58c-3.6,0-7.21,0-10.82,0C33.86,64.45,32.82,64.7,32.4,63.54Z"/><path class="cls-4" d="M63.58,63.53Q66.9,51,70.19,38.4a1.08,1.08,0,0,1,1.27-.94c3.3,0,6.6,0,9.9,0,.63,0,1.06.07.94.89q-1.8,12.76-3.57,25.53a3,3,0,0,1-2.06.6c-3.66,0-7.32,0-11,0C64.92,64.45,63.91,64.67,63.58,63.53Z"/><path class="cls-5" d="M79,64.6c.31-1,1.16-.69,1.83-.69,4.67,0,9.33,0,14,0l.09,0a1.92,1.92,0,0,1,.28,1.69A8.53,8.53,0,0,1,88.1,72a8.28,8.28,0,0,1-8.35-3.71,5.86,5.86,0,0,1-1.08-2.87A1.21,1.21,0,0,1,79,64.6Z"/><path class="cls-3" d="M32.4,63.54c.54.58,1.25.35,1.89.35,4.49,0,9,0,13.47,0h.16a1.72,1.72,0,0,1,.25,1.44c-1.38,5-4.78,7.22-10,6.62A8.65,8.65,0,0,1,34,69.65a8.54,8.54,0,0,1-2.3-4.08A1.83,1.83,0,0,1,32,63.91Z"/><path class="cls-3" d="M79,64.6v.71c0,3.2-2,5-4.61,6.14A7.89,7.89,0,0,1,66,70.32a8.35,8.35,0,0,1-3-4.66,1.87,1.87,0,0,1,.29-1.74l.35-.39c.48.53,1.12.36,1.7.36q6.73,0,13.45,0Z"/><path class="cls-5" d="M63.23,63.92l.06,1.8c0,2.67-1.62,4.25-3.7,5.44-4.87,2.76-11.46-.53-11.76-5.83l.09-1.43Z"/><path class="cls-5" d="M32,63.91l0,1.71c0,2.24-1.47,3.55-2.9,4.91a7.94,7.94,0,0,1-7.94.93c-.67-.27-1.38-.53-1.65-1.32-1.68-1.75-3.15-3.59-2.85-6.25Z"/><path class="cls-6" d="M94.86,142.46H31.37c-2.51,0-2.69-.27-1.77-2.62,2.06-5.23,4.15-10.45,6.17-15.69A3.08,3.08,0,0,1,39,121.87q55.79.06,111.56,0a3.09,3.09,0,0,1,3.3,2.25c2,5.3,4.15,10.57,6.22,15.85.87,2.21.66,2.49-1.78,2.49Z"/><path class="cls-7" d="M155.39,118.21H34.29a2.46,2.46,0,0,1-.6-2q0-18.44,0-36.87A4.12,4.12,0,0,1,33.86,78c.21-.71.71-.79,1.24-.43,1,.67,2.21.94,3.08,1.83a2.9,2.9,0,0,1,.24.64c.24,6.3,0,12.6.1,18.9,0,3.42,0,6.84,0,10.27s.91,4.35,4.37,4.35q24.85,0,49.72,0c.73,0,1.47,0,2.2,0,10.45-.1,20.91,0,31.36,0,7,0,13.94,0,20.91,0,3.08,0,4-1,4.06-4.1,0-8.8,0-17.61,0-26.41a20.45,20.45,0,0,1,.09-2.93,2.4,2.4,0,0,1,.21-.64c.87-1,2.17-1.23,3.21-1.94.48-.33.91-.19,1.12.41a6.34,6.34,0,0,1,.22,2q0,17.82,0,35.66C156,116.52,156.14,117.48,155.39,118.21Z"/><path class="cls-8" d="M148.55,149.91a1.89,1.89,0,0,1-2,2,1.84,1.84,0,0,1-1.93-2.17,1.78,1.78,0,0,1,2.09-1.78A1.81,1.81,0,0,1,148.55,149.91Z"/><path class="cls-9" d="M141,147.91c1.47.05,2.13.83,2.12,2a2,2,0,1,1-4-.15A1.76,1.76,0,0,1,141,147.91Z"/><path class="cls-4" d="M155.41,37.42q6.84,10.15,13.66,20.33A46.84,46.84,0,0,1,173,63.88a2.42,2.42,0,0,1-1.87.58c-4.32,0-8.65.1-13,0a3.29,3.29,0,0,1-.6-.15,3.93,3.93,0,0,1-1.58-2c-3.92-7.52-7.95-15-12-22.45-.38-.71-1-1.41-.64-2.36Z"/><path class="cls-2" d="M110.64,63.88q-1.19-9.21-2.38-18.42l-1-8,12.22,0a5.3,5.3,0,0,1,1.16,2.64c1.87,7.18,3.81,14.35,5.73,21.52.22.83.74,1.76-.23,2.52a8.29,8.29,0,0,1-3.43.3c-3.83-.08-7.66.24-11.48-.19A1.29,1.29,0,0,1,110.64,63.88Z"/><path class="cls-2" d="M143.37,37.5,156.92,63c.14.27.25.55.38.83a1.78,1.78,0,0,1-1.48.57c-4.48,0-9,.22-13.44-.12-.95-.25-1.3-1-1.62-1.83q-4.66-11.64-9.31-23.27c-.22-.55-.55-1.11-.25-1.75Z"/><path class="cls-4" d="M131.2,37.47l10.29,25.6c.11.28.25.55.37.83l-.26.24a3.94,3.94,0,0,1-1.95.32q-5.53,0-11.09,0a4.23,4.23,0,0,1-2-.32l-.26-.24q-3.36-12.67-6.7-25.36c-.09-.35-.13-.71-.19-1.06Z"/><path class="cls-3" d="M110.64,63.88l.28,0a1,1,0,0,1,.36,1.07,8.63,8.63,0,0,1-9.42,7.09c-3.53-.29-6.75-3.23-7-6.5l.06-1.69Z"/><path class="cls-10" d="M38,79.71l-.09-.41A11.31,11.31,0,0,1,38,71.56c4.8.55,8.19-1.27,9.87-6.23,1.72,6,7,7.11,10.47,5.87a8.15,8.15,0,0,0,5-5.48c1.3,3.29,3.42,5.66,7.18,5.87,4.23.24,6.73-1.68,8.49-6.28,1.21,3.84,3.83,6.13,7.2,6.3,4,.19,6.66-1.55,8.42-5.47.87.61.73,1.59.76,2.42,0,1.71.11,3.42.18,5.12a1.21,1.21,0,0,1-.24.53c-.09.24-.44-.33-.53.23a5.87,5.87,0,0,1-3,4.09,3.06,3.06,0,0,1-.9.18c-2.66.08-5.33.1-8,0a2.62,2.62,0,0,1-.57-.11,5.91,5.91,0,0,1-3.32-4.38,7.2,7.2,0,0,1-2.69,4.21c-.53.33-1.11.59-1.66.89-4.74,1.94-8.84.39-11.22-4.31a8.27,8.27,0,0,1-7.92,5.13c-3.71,0-6.08-2.14-7.66-5.35C45.59,79.17,41.59,81.15,38,79.71Z"/><path class="cls-11" d="M95.2,74.19c-.78-2.64.06-5.4-.62-8,.08-.19.16-.38.25-.56,1.29,3.36,3.48,5.73,7.25,6,4.46.32,7.35-2,8.73-6.58a8.85,8.85,0,0,1,1.84,4.13,1.47,1.47,0,0,1-1.07.91c-1.72.48-2.35,1.65-2.49,3.36a14.54,14.54,0,0,1-.82,4.65,1.5,1.5,0,0,1-1.08.63c-2.76.14-5.53.13-8.3,0a2.41,2.41,0,0,1-.92-.16C96.5,77.44,94.87,76.44,95.2,74.19Z"/><path class="cls-7" d="M38,71.56c0,2.58-.05,5.16-.08,7.74-1.49,0-2.49-1-3.57-1.81,0-2.66,0-5.31,0-8A16.22,16.22,0,0,0,38,71.56Z"/><path class="cls-3" d="M157.59,63.93l15.4,0c.21,2.63-1.25,4.47-2.9,6.22a8.24,8.24,0,0,1-9.15.34,11.25,11.25,0,0,1-3.33-4.82A1.2,1.2,0,0,1,157.59,63.93Z"/><path class="cls-12" d="M38,79.71c2.33,0,4.62,0,6.63-1.5a9.28,9.28,0,0,0,3.16-4.84c1.55,4.16,4.11,6.61,8.44,6.28,3.47-.26,5.85-2.19,7-5.75a22.59,22.59,0,0,0,1.68,2.82c2.65,3.21,6,3.61,9.74,2.25,1.55,2.22,2.26,4.83,3.36,7.26,1.39,3,2.69,6.13,4,9.23a2.46,2.46,0,0,0,2.65,1.72c2.68-.06,5.36,0,8,0,.83,0,1.73-.15,2.4.59a9.11,9.11,0,0,1,.1,4.75c-1.5,1.12-2.33,1-3.08-.65-.1-.22,0,0-.06-.17-1.08-2.33-3.19-3.18-5.18-2.09a3.65,3.65,0,0,0-1.22,5.08c1.27,1.88,3.48,2.08,5.58.52,1.76-1.31,2.62-1.35,4-.2a45.3,45.3,0,0,1,.17,7.81,1.79,1.79,0,0,1-.53,1.32l-35.77,0c-5.75,0-11.5,0-17.25,0-2.43,0-3.86-1.33-3.86-3.66C37.93,100.26,38,90,38,79.71Z"/><path class="cls-13" d="M94.83,114.14v-9.43c2.85-.85,5.69-1.31,8.33.54,1.83,1.29,3.73,1.33,5.15-.08,1.26-1.26,1.31-3.08,0-4.81a4.75,4.75,0,0,1-1-3.76c.89-7,1.67-14.08,2.6-21.11a6.67,6.67,0,0,1,.61-2c1.22-.26,1.12.88,1.41,1.46A7.17,7.17,0,0,0,119,79.18c2.9-.06,4.88-1.68,6.24-4.14.25-.47.34-1.18,1-1.22s.91.7,1.18,1.23a7.18,7.18,0,0,0,6.81,4.13c3.13,0,5.23-1.72,6.59-4.45.26-.53.43-1.29,1.14-1.28s.79.83,1,1.36a7.36,7.36,0,0,0,6.48,4.39c.77.08,1.61-.15,2.25.51q0,15.48,0,31a3.28,3.28,0,0,1-3.4,3.5Q121.58,114.18,94.83,114.14Z"/><path class="cls-11" d="M151.71,79.71a13.92,13.92,0,0,1-4.87-.59A7.85,7.85,0,0,1,142,73.31c-1.48,3.75-3.66,6.29-7.63,6.36s-6.54-1.93-8-5.89a8.89,8.89,0,0,1-3.65,4.81,7.87,7.87,0,0,1-11.19-3.34c-.29-.6-.56-1.21-.84-1.81-.78-1-.28-1.69.61-2.18a10.16,10.16,0,0,1,2.91-1,10.52,10.52,0,0,1,2.63.69,7.52,7.52,0,0,0,8.34-3.82c.32-.56.39-1.33,1.17-1.54.75.24.87,1,1.17,1.54a6.86,6.86,0,0,0,6.63,4A7.29,7.29,0,0,0,140.69,67c.34-.62.41-1.43,1.25-1.68.71.23.71.94,1,1.46a7.51,7.51,0,0,0,6.69,4.4c.87,0,1.88-.22,2.46.8.25,2.47.68,4.95-.27,7.37Z"/><path class="cls-7" d="M151.8,79.3q0-3.87-.07-7.74a5.82,5.82,0,0,1,3.65-2.07c0,2.66,0,5.33,0,8C154.29,78.32,153.29,79.3,151.8,79.3Z"/><path class="cls-5" d="M155.38,69.49a14.64,14.64,0,0,1-3.65,2.07c-5.63.22-7.92-1.23-9.87-6.25a1,1,0,0,1-.11-1.43l.11,0,15.44,0a1.5,1.5,0,0,1,.29.06c0,.56,0,1.13,0,1.69A12.68,12.68,0,0,1,155.38,69.49Z"/><path class="cls-5" d="M126.39,65.71c-2,4.42-4.34,6-8.43,5.91a10.53,10.53,0,0,1-3.64-1.1,1.81,1.81,0,0,1-1.74-1.46A9.42,9.42,0,0,1,110.81,65c0-.36.07-.72.11-1.08h15.43l.1,0A1.3,1.3,0,0,1,126.39,65.71Z"/><path class="cls-3" d="M126.39,65.71l.06-1.82h15.3c0,.47.07.95.11,1.43-1.71,6-7,7.16-10.55,5.88A8.11,8.11,0,0,1,126.39,65.71Z"/><path class="cls-14" d="M110.29,75.25l-2,17.42c-.14,1.21-.26,2.42-.46,3.62-.24,1.47-.26,2.68,1.08,3.88a3.81,3.81,0,0,1-.28,5.56c-1.6,1.48-4.24,1.62-5.6,0a3.12,3.12,0,0,0-2.84-1.1c-1.77.06-3.54,0-5.31.07a3.64,3.64,0,0,0-3.72,1.22c-1.09,1.27-3.3,1.21-4.76.27a4.12,4.12,0,0,1-1.76-4.47,4.25,4.25,0,0,1,3.86-3.14,3.8,3.8,0,0,1,3.93,2.69c.33,1.67,1.23,1.67,2.45,1.47,1.24-.78,2.62-.42,3.94-.42s2.36-.27,2.89-1.67a5.21,5.21,0,0,1,2.63-2.43c-2.68-.08-4.93,0-7.17,0a3.46,3.46,0,0,1-2.29-.44c-3.66,0-7.32-.06-11-.06-.83,0-1.5,0-1.9-1-2.36-5.62-4.79-11.21-7.18-16.82a3.76,3.76,0,0,1-.12-.9,2.27,2.27,0,0,1,1.44-.82,8,8,0,0,1,5.88,0l.37.11a11.54,11.54,0,0,0,8.88,0l.66-.15a5.49,5.49,0,0,1,3-.46,5.44,5.44,0,0,1,3,.46l.67.15a11.49,11.49,0,0,0,8.88,0c.3-.07.65,0,.75-.44C108.67,76.84,108.83,75.49,110.29,75.25Z"/><path class="cls-15" d="M82,78.16H76.09a11.68,11.68,0,0,0,2.84-4.72A9.62,9.62,0,0,0,82,78.16Z"/><path class="cls-16" d="M91.22,78.3c-2.58,2-5.83,2-8.88,0Z"/><path class="cls-15" d="M94.85,78.16h-3c1.09-1.2,2.28-2.33,2.67-4,0,0,.1-.08.15-.07s.1,0,.15.08C95.21,75.5,95.84,76.83,94.85,78.16Z"/><path class="cls-17" d="M94.85,78.16v-4l.35,0c.28,1.7,1.55,2.75,2.59,4Z"/><path class="cls-18" d="M110.29,75.25l-2.2,2.58c.24-2,.51-4.08.72-6.12.1-1,.76-1.41,1.62-1.72s1.43-.62,2.15-.93l1.74,1.46a17.2,17.2,0,0,1-2.33.94,1.53,1.53,0,0,0-1.32,2C110.48,74,110.83,74.74,110.29,75.25Z"/><path class="cls-16" d="M107.34,78.27c-3,2-6.31,2-8.88,0Z"/><path class="cls-19" d="M94.84,97.74c3.24,0,6.48,0,9.72-.06.33,0,.82-.14.9.36s-.34.59-.71.68a3.86,3.86,0,0,0-3,3.28c-.14.84-.72.83-1.36.82l-5.5-.07Z"/><path class="cls-4" d="M130.11,91.45a8.91,8.91,0,0,0-.16-.9c-.12-.39-.47-.81-.08-1.18s.8,0,1.18.15l10.44,3.75c-1,.89-2.25.62-3.12,1.23a.16.16,0,0,0,0,.15s.09.07.14.11c.44.43,1,.76,1.11,1.45a16.87,16.87,0,0,0,1.59,1.68c1.16,1,1.25,1.92.22,3-.7,1.32-1.67.9-2.59.34a10.4,10.4,0,0,1-1.72-1.6c-1.44-1.41-1.44-1.41-2.59.22l-.72,1.13c-.18,0-.4-.11-.47-.26A35.89,35.89,0,0,1,130.11,91.45Z"/><path class="cls-20" d="M134.51,99.85a1.61,1.61,0,0,1,0-.54c.22-.54.08-1.37.69-1.59s1,.56,1.42,1a19.74,19.74,0,0,1,1.94,1.94,1.77,1.77,0,0,0,2.83.28,2.37,2.37,0,0,1-1.59,2.73c-1.19.6-1.52-.64-2.18-1.13C136.55,101.68,135.92,100.3,134.51,99.85Z"/><path class="cls-21" d="M130.11,91.45q1.83,4.77,3.67,9.53a2.33,2.33,0,0,1-.86,2.14c-1.29-3.63-2.56-7.16-3.8-10.7C128.78,91.45,129.44,91.43,130.11,91.45Z"/><path class="cls-22" d="M139.6,96.21a1.93,1.93,0,0,1-1.11-1.45l1.21.31c.33.09.84.13.74.56C140.38,95.88,139.89,96,139.6,96.21Z"/><path class="cls-12" d="M94.84,86.6c-4.64,0-9.29,0-13.93.08a1.36,1.36,0,0,1-1.49-1c-.59-1.47-1.2-2.94-1.88-4.37-.43-.93-.31-1.28.8-1.26,5.5,0,11,0,16.5.07A8.22,8.22,0,0,1,94.84,86.6Z"/><path class="cls-13" d="M94.84,86.6V80.11c3.91,0,7.82,0,11.73-.07.9,0,1.25.26,1,1.15-.08.36-.14.72-.19,1.08-.19,1.43.27,3.4-.79,4.13s-2.82.25-4.28.25C99.85,86.66,97.35,86.62,94.84,86.6Z"/><path class="cls-12" d="M94.84,95.78c-3.35,0-6.7,0-10,.06-.59,0-1.07-.06-1.33-.7-.78-1.9-1.6-3.79-2.47-5.85H94.84A8.22,8.22,0,0,1,94.84,95.78Z"/><path class="cls-13" d="M94.84,95.78V89.29c3.49,0,7,0,10.46-.08,1,0,1.49.28,1.24,1.35-.09.35-.13.72-.19,1.08-.23,1.36.28,3.25-.79,4s-2.71.24-4.11.24C99.25,95.84,97.05,95.8,94.84,95.78Z"/><path class="cls-23" d="M103.58,102.86c.12-1.31.76-2.19,2.15-2.22a2.16,2.16,0,0,1,.16,4.32A2.12,2.12,0,0,1,103.58,102.86Z"/><path class="cls-24" d="M90.82,102.75c-.18,1.33-.87,2.21-2.23,2.22a2.16,2.16,0,0,1-.07-4.32C89.88,100.58,90.57,101.47,90.82,102.75Z"/></svg>