<svg id="Layer_1" data-name="Layer 1" xmlns="http://www.w3.org/2000/svg" xmlns:xlink="http://www.w3.org/1999/xlink" viewBox="0 0 190.75 192.7"><defs><style>.cls-1{fill:url(#radial-gradient);}.cls-2{fill:#231f20;}.cls-10,.cls-11,.cls-12,.cls-13,.cls-14,.cls-15,.cls-16,.cls-17,.cls-18,.cls-19,.cls-2,.cls-20,.cls-21,.cls-22,.cls-23,.cls-24,.cls-25,.cls-26,.cls-27,.cls-28,.cls-29,.cls-3,.cls-30,.cls-31,.cls-4,.cls-5,.cls-6,.cls-7,.cls-8,.cls-9{fill-rule:evenodd;}.cls-3{fill:#ebeff0;}.cls-4{fill:#fefefe;}.cls-5{fill:#00bc9b;}.cls-6{fill:#94a4a5;}.cls-7{fill:#33495f;}.cls-8{fill:#2b3e51;}.cls-9{fill:#e84b35;}.cls-10{fill:#c13824;}.cls-11{fill:#f49c00;}.cls-12{fill:#f1c400;}.cls-13{fill:#364d5d;}.cls-14{fill:#2e4150;}.cls-15{fill:#bcc2c6;}.cls-16{fill:#2c3e51;}.cls-17{fill:#344a5f;}.cls-18{fill:#3eaaeb;}.cls-19{fill:#e94e33;}.cls-20{fill:#474b46;}.cls-21{fill:#4d5a51;}.cls-22{fill:#07be9e;}.cls-23{fill:#e84f3a;}.cls-24{fill:#e8523d;}.cls-25{fill:#94a3a5;}.cls-26{fill:#415263;}.cls-27{fill:#b2babf;}.cls-28{fill:#e2e7e9;}.cls-29{fill:#ebedee;}.cls-30{fill:#babfc3;}.cls-31{fill:#334658;}</style><radialGradient id="radial-gradient" cx="95.22" cy="95.71" r="94.32" gradientTransform="translate(95.56 -39.3) rotate(45)" gradientUnits="userSpaceOnUse"><stop offset="0" stop-color="#fff"/><stop offset="1" stop-color="#283c4b"/></radialGradient></defs><title>Artboard 9</title><circle class="cls-1" cx="95.22" cy="95.71" r="94.32" transform="translate(-39.79 95.36) rotate(-45)"/><path class="cls-2" d="M163.54,42.09l0,3.69c.89,1.8.4,3.72.5,5.6.05.91,0,1.83,0,2.74-.07,1.72,0,3.45,0,5.17-.1,1,.08,2.06,0,3.1,0,3,.1,6.09,0,9.14.14,15.75,0,31.49.06,47.24a11.46,11.46,0,0,1-.28,3.45,1.22,1.22,0,0,1-.49.54,6.19,6.19,0,0,1-2.7.33H29.73a4.66,4.66,0,0,1-2.84-.48c-.76-1-.54-2.22-.54-3.36,0-16.25-.09-32.49,0-48.74-.08-2.57,0-5.14,0-7.7-.06-.7.07-1.39,0-2.08,0-2.19,0-4.38,0-6.57-.1-2.36,0-4.71,0-7.06A3.1,3.1,0,0,1,26.88,45c.07-1.85-.47-3.88,1.53-5.17.9-1.26,2.25-.77,3.45-.86,2.41-.07,4.82-.08,7.23,0,3.41-.09,6.81-.06,10.22,0s6.56-.05,9.84,0c1.62.09,3.24-.07,4.86,0s3-.12,4.55,0q26.46-.12,52.92,0c1.52-.13,3,.07,4.55,0s3.24.06,4.86,0c3.28,0,6.56,0,9.84,0s6.82-.06,10.22,0q3.66-.1,7.3,0c1,0,2.11-.26,3,.58A5.24,5.24,0,0,1,163.54,42.09Z"/><path class="cls-3" d="M27,122.5H163.45a2.55,2.55,0,0,1,.62,2.17c0,2.22.05,4.45,0,6.66.06,2.06-.25,4-2.26,5.08a6.85,6.85,0,0,1-3.46.56c-.76,0-1.52,0-2.28,0-1.57.06-3.14.07-4.71,0-2.54.07-5.08.08-7.63,0s-4.89.07-7.34,0-4.92.06-7.38,0c-3.8,0-7.6.08-11.4,0q-22.33.09-44.66,0c-3.93.06-7.85.08-11.77,0-2.7.08-5.4.07-8.09,0-2.22.07-4.43.05-6.64,0-2.54.07-5.08.06-7.62,0-1.58.06-3.15.05-4.72,0-.76,0-1.52,0-2.28,0a10.5,10.5,0,0,1-2.85-.19A4.4,4.4,0,0,1,26.45,133c0-.64-.08-1.28,0-1.92,0-2.46-.08-4.92,0-7.38A1.65,1.65,0,0,1,27,122.5Z"/><path class="cls-4" d="M115.78,117.3H73.93a3.14,3.14,0,0,1-.58-2.42q0-15.61,0-31.23a5.13,5.13,0,0,1,.26-2,1.26,1.26,0,0,1,.48-.54,5.36,5.36,0,0,1,2.51-.34q18.28,0,36.56,0a6.24,6.24,0,0,1,2.35.26,1.22,1.22,0,0,1,.54.49,5.55,5.55,0,0,1,.33,2.52q0,15.22,0,30.45C116.36,115.47,116.53,116.49,115.78,117.3Z"/><path class="cls-5" d="M74,81.36q0,18,0,35.94c-13.5,0-27,0-40.51.07-1,0-1.37-.31-1.36-1.36,0-11.54,0-23.09.07-34.64a3.14,3.14,0,0,1,2.42-.58q18.5,0,37,0A3.16,3.16,0,0,1,74,81.36Z"/><path class="cls-4" d="M115.79,45.45q20.36,0,40.73-.07c.87,0,1.13.25,1.13,1.13q-.06,17.43-.07,34.86a3.14,3.14,0,0,1-2.42.59q-18.48,0-37,0a3.36,3.36,0,0,1-2.43-.61l0,0a3.33,3.33,0,0,1-.61-2.42q0-15.56,0-31.1A3.11,3.11,0,0,1,115.79,45.45Z"/><path class="cls-4" d="M74,81.36H32.13q0-17.43-.07-34.86c0-.88.26-1.13,1.13-1.13q20.37.06,40.73.07a3.15,3.15,0,0,1,.6,2.42q0,15.56,0,31.1a3.33,3.33,0,0,1-.61,2.42Z"/><path class="cls-5" d="M73.91,81.39q0-18,0-35.94h41.87q0,18,0,35.94Z"/><path class="cls-5" d="M115.76,81.36h41.82c0,11.55,0,23.1.07,34.65,0,1-.33,1.35-1.36,1.35q-20.26-.06-40.52-.07Q115.77,99.33,115.76,81.36Z"/><path class="cls-6" d="M72.84,136.49h44.77c-.17,2.09-2.59,5.68-4.25,6.32-9.22.21-18.43.06-27.64.08-3,0-6,.17-9-.11A10,10,0,0,1,72.84,136.49Z"/><path class="cls-7" d="M95.27,132.4a2.94,2.94,0,1,1,2.89-3A2.8,2.8,0,0,1,95.27,132.4Z"/><path class="cls-8" d="M100,97.1c.83,0,1.13.33,1.13,1.21-.05,5,0,10,0,15,0,.85-.27,1.2-1.15,1.16-1.57-.07-3.15-.05-4.73-.07a2.62,2.62,0,0,1-.58-2.06q0-6.58,0-13.18a3.14,3.14,0,0,1,.46-1.93A5.09,5.09,0,0,1,100,97.1Z"/><path class="cls-7" d="M95.21,97.23q0,8.56,0,17.13c-1.53,0-3,0-4.57.07-.9,0-1.33-.23-1.33-1.23,0-4.94,0-9.88,0-14.82,0-.83.27-1.27,1.12-1.28A5.78,5.78,0,0,1,95,97Z"/><path class="cls-9" d="M91.91,93.07c0-2.69,0-5.38,0-8.07,0-1,.25-1.4,1.26-.84.79.44,1.61.83,2.41,1.24a28.58,28.58,0,0,1,0,7.45,1.1,1.1,0,0,1-.43.5C94,93.7,92.91,93.92,91.91,93.07Z"/><path class="cls-10" d="M95.21,93.05c0-2,0-4,0-6,0-.58-.19-1.22.35-1.7,3,1.19,3,1.19,3,4.23,0,1.15,0,2.3,0,3.45A2.49,2.49,0,0,1,95.21,93.05Z"/><path class="cls-11" d="M95.21,93.05l3.33,0c1.15-.13,1.59.37,1.47,1.53-.08.82,0,1.66,0,2.49l-4.78.13,0-.13a3.45,3.45,0,0,1,0-3.91Z"/><path class="cls-12" d="M95.23,93.19c0,1.3,0,2.6,0,3.91H90.45a24.29,24.29,0,0,0,0-2.56c-.13-1.17.45-1.51,1.48-1.47Z"/><path class="cls-11" d="M58.48,98.25c1.64,4.32,3.24,8.66,4.94,13,.55,1.39-.56,1.64-1.27,2a18.53,18.53,0,0,1-8.78,1.24,2.82,2.82,0,0,1-.58-2.07c0-4,0-8.07,0-12.1a3.24,3.24,0,0,1,.46-1.94A5.65,5.65,0,0,1,58.48,98.25Z"/><path class="cls-12" d="M53.35,98.32q0,8,0,16.08a19.9,19.9,0,0,1-8.62-1.13c-1.32-.52-1.86-1.2-1.21-2.76,1.67-4.05,3.16-8.17,4.72-12.26a6.33,6.33,0,0,1,4.87-.18Z"/><path class="cls-12" d="M48.18,85.46A8.86,8.86,0,0,1,53.37,87a1.44,1.44,0,0,1,.49,1.13,51.71,51.71,0,0,1-.16,8.71,1.18,1.18,0,0,1-.43.53,6.64,6.64,0,0,1-5-.2c-.83-2.46-1.68-4.91-2.47-7.39-.45-1.37.36-2.44,1-3.52A1.29,1.29,0,0,1,48.18,85.46Z"/><path class="cls-11" d="M53.35,97.1c0-3.37,0-6.73,0-10.1a8.75,8.75,0,0,1,5.19-1.53,1.27,1.27,0,0,1,1.36.79A4.51,4.51,0,0,1,60.61,91c-.82,2-1.43,4.11-2.13,6.17A5.29,5.29,0,0,1,53.35,97.1Z"/><path class="cls-8" d="M53.35,97.1l5.13.07v1.08l-5.13.07,0-.11a.63.63,0,0,1,0-1Z"/><path class="cls-7" d="M53.39,97.22v1l-5.13,0V97.17Z"/><path class="cls-13" d="M48.18,85.46l-1.36.8c0-.61-.08-1.22,0-1.82,0-.43-.24-1.12.51-1.14s.5.68.61,1.11S48.08,85.11,48.18,85.46Z"/><path class="cls-14" d="M59.92,86.26l-1.36-.79c.53-.64-.11-2.21.88-2.09s.33,1.52.52,2.33A2.1,2.1,0,0,1,59.92,86.26Z"/><path class="cls-11" d="M136.71,49.86c2.14,0,4.27-.07,6.41,0a2.57,2.57,0,0,1,2.76,2.71c0,7.45,0,14.9,0,22.35,0,1-.23,1.42-1.32,1.38-2.62-.08-5.25-.06-7.87-.08-1-1.33-.34-2.87-.53-4.3,0-.53-.39-1-.33-1.5.5-2,.24-4,.32-5.93a3.89,3.89,0,0,1,.52-2.6c1.48-.84,3.1-.39,4.65-.47,1.95-.1,2.12-.19,2.14-2.07s0-3.66,0-5.48c.06-1.53-.61-2-2.07-2s-3.17.36-4.67-.4A1.06,1.06,0,0,1,136.71,49.86Z"/><path class="cls-12" d="M136.68,71.39l0,4.78c-2.51,0-5,0-7.52.07-.94,0-1.31-.33-1.31-1.29q0-11.93,0-23.86c0-1,.37-1.31,1.31-1.3,2.5.05,5,.05,7.52.07,0,.45,0,.9,0,1.35l-.2.24c-1.47.65-3,.33-4.52.34s-2.12.56-2.07,2.06c.06,1.89,0,3.78,0,5.67,0,1.33.58,1.83,1.87,1.87,1.57,0,3.18-.32,4.71.34l.2.25c0,2.31,0,4.62,0,6.93,0,.71,0,1.33-.74,1.71.09.94-.6,1.63-.88,2.52C135.57,72.42,135.71,71.56,136.68,71.39Z"/><path class="cls-7" d="M53.37,76.54c-7.53.37-14-6.07-14-14,0-7.73,6.5-14.16,14-13.8,1,2.12.53,4.32.34,6.51-.38.85-1.24.89-2,1.15-3,1.08-4.83,3.41-4.85,6.2s1.82,5.17,4.79,6.24c.73.27,1.6.3,2,1.13C53.92,72.19,54.39,74.4,53.37,76.54Z"/><path class="cls-8" d="M53.37,76.54c0-2.29,0-4.59,0-6.88l.17-.21a11.37,11.37,0,0,1,2-.76,6.4,6.4,0,0,0,0-12.08,12.59,12.59,0,0,1-2.05-.75l-.16-.21c0-2.3,0-4.59,0-6.89,7.53-.36,14,6.08,14,14C67.34,70.47,60.84,76.9,53.37,76.54Z"/><path class="cls-3" d="M106.91,67.06v4c-1.07.86-2.33.49-3.52.55s-2.32,0-3.48,0c-1.39-.07-1.94.5-2,1.92s.41,2.82-.54,4.07H92.65c-.94-1.25-.53-2.71-.53-4.07s-.56-2-2-1.92c-1.58,0-3.17,0-4.75,0a3,3,0,0,1-2.24-.55v-4c.82-.73,1.84-.49,2.79-.54.67,0,1.34,0,2,0,3.75,0,3.75,0,4.35-3.55a1.32,1.32,0,0,1,.4-.51,7.89,7.89,0,0,1,4.54-.07,1.11,1.11,0,0,1,.45.46,3.13,3.13,0,0,1,.16.52c.43,3.14.43,3.07,3.71,3.17C103.36,66.59,105.22,66,106.91,67.06Z"/><path class="cls-3" d="M90.87,56.1c.46-.89-.4-.67-.71-.76a10.11,10.11,0,0,1-3.82-1.68A2.31,2.31,0,0,1,86,50a4.17,4.17,0,0,1,6.43-.26c1.41,1.34,2,3.14,2.94,4.9a22.07,22.07,0,0,1,2.33-4.23,5.88,5.88,0,0,1,2.45-1.86,4.5,4.5,0,0,1,5.19,2.37c.55,1.47-.25,2.69-2.47,3.64-.78.34-1.63.52-2.43.8-.31.11-1,0-.53.74a4.54,4.54,0,0,1,1.81,3.08,1.42,1.42,0,0,1-1,1.9c-1.06.11-1.48-.64-1.84-1.43A12.44,12.44,0,0,0,97.49,57c-.15-.19-.16.24,0,0,.45-.63.57,2,.18,4a1,1,0,0,1-.43.41,10.05,10.05,0,0,1-4.23.06,1.25,1.25,0,0,1-.47-.31,5,5,0,0,1-.33-2.54c-.44,1-.53,2.42-2.21,2.4-1.72-.88-.84-2.12-.45-3.29A3,3,0,0,1,90.87,56.1Z"/><path class="cls-9" d="M97.42,77.64c0-1.77,0-3.55,0-5.32,0-1,.27-1.26,1.24-1.24,2.75,0,5.51,0,8.26,0,0,1.82,0,3.66.08,5.48,0,.89-.28,1.16-1.15,1.14C103,77.66,100.23,77.66,97.42,77.64Z"/><path class="cls-9" d="M83.17,71.1c2.75,0,5.51,0,8.26,0,1,0,1.28.27,1.24,1.24-.07,1.77,0,3.55,0,5.32-2.8,0-5.61,0-8.42.08-.87,0-1.17-.25-1.14-1.14C83.16,74.76,83.15,72.92,83.17,71.1Z"/><path class="cls-9" d="M92.61,62.64c.16,4.42.16,4.42-4.16,4.42H83.17V62.65a2,2,0,0,1,1.51-.54q3.21-.11,6.42,0A2,2,0,0,1,92.61,62.64Z"/><path class="cls-9" d="M106.91,67.06c-2.67,0-5.34-.07-8,0-1.22,0-1.61-.35-1.49-1.53.09-1,0-1.94.06-2.91A2,2,0,0,1,99,62.11q3.21-.11,6.42,0a2,2,0,0,1,1.51.54Z"/><path class="cls-9" d="M90.87,56.1c-.44,1-.88,2-1.31,2.95a1.25,1.25,0,0,0,.52,1.84.47.47,0,0,1-.27.56c-2.26.35-4.53.7-6.74-.24-.53,0-1.17.07-1.07-.81a3.37,3.37,0,0,0,0-.55c-.08-3.81-.08-3.81,3.75-3.8C87.46,56.05,89.16,56.08,90.87,56.1Z"/><path class="cls-9" d="M100.73,60.89c.9-.5.82-1.22.46-2s-.83-1.85-1.25-2.78c2.32,0,4.64,0,7-.07.81,0,1.26.12,1.2,1.08a20.18,20.18,0,0,0,0,3.11c.06.88-.38,1-1.08,1-2,.91-4,.59-6,.24A.46.46,0,0,1,100.73,60.89Z"/><path class="cls-10" d="M100.73,61.18l6.28,0c0,.48-.07,1-.1,1.44H97.47l-.1,0a1.2,1.2,0,0,1,0-1.5l.09,0C98.55,60.29,99.64,60.8,100.73,61.18Z"/><path class="cls-10" d="M83.07,61.21l7,0c.85-.3,1.69-.73,2.53,0l.09,0a1.18,1.18,0,0,1,0,1.5l-.09,0H83.17C83.14,62.17,83.1,61.69,83.07,61.21Z"/><path class="cls-3" d="M137.06,113.26c-3.78,0-7.56,0-11.33.07-1.1,0-1.53-.36-1.52-1.48q0-10.42,0-20.84a1.37,1.37,0,0,1,1.21-1.54l4.28-.9c1-.12,1.71.54,2.52.92,1.37.63,2.67,1.5,4.31,1.25.68,1.83.26,3.73.34,5.6a8.69,8.69,0,0,0,.56,3.57c.47,4,.17,8,.17,12A1.77,1.77,0,0,1,137.06,113.26Z"/><path class="cls-15" d="M137.06,113.26q0-6.76,0-13.53c.72-1.29.51-2.71.58-4.1.08-1.63-.31-3.29.33-4.88,2.64.32,4.46-1.84,6.85-2.29,1.61.51,3.78.22,4.75,1.46s.31,3.42.33,5.17c0,5.56,0,11.12,0,16.68,0,1.18-.3,1.6-1.53,1.57C144.63,113.25,140.84,113.28,137.06,113.26Z"/><path class="cls-16" d="M144.83,88.46c-1.69.9-3.39,1.78-5.06,2.7-.71.4-1.11.21-1.34-.53a3.53,3.53,0,0,1-1.3-2.61,1.2,1.2,0,0,1,.18-.52,4.24,4.24,0,0,1,2.17-1.07,19,19,0,0,1,4.92-1.7C145.24,85.9,144.53,87.24,144.83,88.46Z"/><path class="cls-17" d="M137.45,87.68c0,.13,0,.25,0,.38-.47.84-.34,2-1.41,2.52-.24.89-.7.94-1.47.51-1.58-.89-3.22-1.68-4.83-2.52.28-1.26-.44-2.64.42-3.84a38,38,0,0,1,4.68,1.48c.55.24,1.08.52,1.63.75C136.8,87.15,137.24,87.25,137.45,87.68Z"/><path class="cls-7" d="M144.4,84.73l-4.79,2.14c-.84-.39-1.85.45-2.63-.36a1.36,1.36,0,0,1,.09-1.77Z"/><path class="cls-8" d="M137.07,84.74c0,.56,0,1.12,0,1.69l-.18.24a2.28,2.28,0,0,1-2-.16,12.35,12.35,0,0,1-4.75-1.78Z"/><path class="cls-15" d="M124.91,157.72l.11,1.12c0,5.19-.46,4.8-5,4.77-.42,0-.84,0-1.26.06a10.9,10.9,0,0,1-4,.54H75.34a10.9,10.9,0,0,1-4-.54c-1.15,0-2.29,0-3.44-.06-2.16,0-2.78-.64-2.81-2.78,0-.67,0-1.33-.06-2,.14-.37-.11-.86.35-1.13a5.52,5.52,0,0,1,2.65-.58h54.4A4.26,4.26,0,0,1,124.91,157.72Z"/><path class="cls-15" d="M114,142.33c0,1.1,0,2.19.05,3.29l0,1.43a2.91,2.91,0,0,1-2.4.63q-16.5,0-33,0a3.05,3.05,0,0,1-2.42-.59l-.09-1.1.12-3.66Z"/><path class="cls-3" d="M76.16,147.09l37.82,0,3.51,3a42.78,42.78,0,0,0,4.51,4.42c.85,1.19,2.23,1.9,2.91,3.23H65.41l3-3.21,3.7-3.61Z"/><path class="cls-8" d="M136.69,51.21c2.06,0,4.13.07,6.19,0,.85,0,1.19.25,1.18,1.14,0,2.79,0,5.59,0,8.38,0,.88-.33,1.16-1.18,1.15-2.06,0-4.13,0-6.19,0l0-.12a1.8,1.8,0,0,1-.54-1.32q-.15-3.94,0-7.89a1.77,1.77,0,0,1,.54-1.32Z"/><path class="cls-18" d="M143,64.9a1.3,1.3,0,0,1,1.28,1.46A1.22,1.22,0,0,1,143,67.59a1.27,1.27,0,0,1-1.37-1.35A1.31,1.31,0,0,1,143,64.9Z"/><path class="cls-19" d="M139.89,69.26c-.76,0-1.32-.29-1.31-1.13s.32-1.41,1.25-1.44a1.11,1.11,0,0,1,1.29,1.16C141.16,68.72,140.81,69.23,139.89,69.26Z"/><path class="cls-20" d="M139.4,70.36c-.43,1.35-.63,2.31-1.88,2.82A3,3,0,0,1,139.4,70.36Z"/><path class="cls-21" d="M136.68,71.39c-.66.42-.5,1.67-1.76,1.63a5.09,5.09,0,0,1,1.06-2.4C136.55,70.57,136.72,70.89,136.68,71.39Z"/><path class="cls-7" d="M136.72,51.33V61.86c-2,0-4,0-6,.07-1,0-1.38-.41-1.36-1.42q.06-3.91,0-7.84c0-1,.32-1.44,1.36-1.41C132.71,51.32,134.72,51.31,136.72,51.33Z"/><path class="cls-7" d="M131.93,64.49A4.79,4.79,0,0,1,134.5,67a5,5,0,0,1-2.48,2.6c-.84,0-2.67-1.77-2.65-2.61A4.82,4.82,0,0,1,131.93,64.49Z"/><path class="cls-9" d="M53.38,69.66c-4.18-.42-7-3.22-7-7s2.79-6.59,7-7v.12a3.69,3.69,0,0,1,.28,3.28c-.29.6-.91.74-1.41,1.06-2.22,1.41-2.24,3.65,0,5.06.5.32,1.12.47,1.43,1.06a3.63,3.63,0,0,1-.27,3.3Z"/><path class="cls-10" d="M53.38,69.53V66l.15-.21a8,8,0,0,1,.95-.53c2.32-1.43,2.32-3.75,0-5.18a8,8,0,0,1-.95-.53l-.15-.21c0-1.18,0-2.37,0-3.55a6.88,6.88,0,1,1,0,13.76Z"/><path class="cls-15" d="M92.7,62.67v-1.5h4.67v1.5Z"/><path class="cls-22" d="M98.13,53.85a5.78,5.78,0,0,1,2-3A2,2,0,0,1,103,51c.59.52.68,1-.1,1.37A15,15,0,0,1,98.13,53.85Z"/><path class="cls-22" d="M92.81,53.84a12.69,12.69,0,0,1-4.07-1.06c-.56-.26-1.71-.34-1.24-1.3a1.9,1.9,0,0,1,2.43-1.07C91.44,51,92,52.29,92.81,53.84Z"/><path class="cls-23" d="M100.73,61.18H97.46V56.67a4.71,4.71,0,0,1,1.87,2.8c.26.69.46,1.42,1.4,1.42Z"/><path class="cls-24" d="M92.61,61.19H90.08v-.29c1.85-.25,1.14-2.39,2.53-3.28Z"/><path class="cls-25" d="M136,90.58c.4-.88.51-1.92,1.41-2.52l1,2.57c-.57,2.56-.13,5.14-.24,7.71,0,.8,0,1.49-1.12,1.39-.89-.18-.66-.89-.66-1.46,0-2,0-4,0-6C136.38,91.68,136.68,91,136,90.58Z"/><path class="cls-26" d="M146.77,95.4c-2,.46-.82,2-1.48,2.87-1.24-.58.35-2.53-1.7-2.78A3.43,3.43,0,0,1,146.77,95.4Z"/><path class="cls-27" d="M137.05,86.43c.83.31,1.82-.34,2.56.44l-2.16.81a1.46,1.46,0,0,1-1.13-.41c.13-.37.52-.46.76-.71Z"/><path class="cls-28" d="M137.08,86.56c0,.53-.32.67-.76.71-.52-.19-1.15-.16-1.45-.76Z"/><path class="cls-29" d="M53.37,66c-2.16-.45-3.24-1.52-3.29-3.24s1.06-3,3.29-3.42v.1a1.76,1.76,0,0,1,.3,1.87c-1.49,1-1.17,2,0,3a1.44,1.44,0,0,1-.28,1.57Z"/><path class="cls-30" d="M53.35,61.49c0-.69,0-1.38,0-2.07,2.12.24,3.35,1.48,3.3,3.32s-1.26,2.92-3.3,3.14V64.13C54.24,63.25,54.51,62.37,53.35,61.49Z"/><path class="cls-31" d="M53.35,61.49c.71,0,1.37.12,1.41,1s-.53,1.42-1.4,1.61c-.9-.2-1.54-.62-1.45-1.68S52.7,61.56,53.35,61.49Z"/></svg>