<svg id="Layer_1" data-name="Layer 1" xmlns="http://www.w3.org/2000/svg" xmlns:xlink="http://www.w3.org/1999/xlink" viewBox="0 0 188.64 188.64"><defs><style>.cls-1{fill:url(#radial-gradient);}.cls-2{fill:#bcc5cc;}.cls-10,.cls-100,.cls-101,.cls-102,.cls-103,.cls-104,.cls-105,.cls-106,.cls-107,.cls-108,.cls-109,.cls-11,.cls-110,.cls-111,.cls-112,.cls-113,.cls-114,.cls-115,.cls-116,.cls-117,.cls-118,.cls-119,.cls-12,.cls-120,.cls-121,.cls-122,.cls-123,.cls-124,.cls-125,.cls-13,.cls-14,.cls-15,.cls-16,.cls-17,.cls-18,.cls-19,.cls-2,.cls-20,.cls-21,.cls-22,.cls-23,.cls-24,.cls-25,.cls-26,.cls-27,.cls-28,.cls-29,.cls-3,.cls-30,.cls-31,.cls-32,.cls-33,.cls-34,.cls-35,.cls-36,.cls-37,.cls-38,.cls-39,.cls-4,.cls-40,.cls-41,.cls-42,.cls-43,.cls-44,.cls-45,.cls-46,.cls-47,.cls-48,.cls-49,.cls-5,.cls-50,.cls-51,.cls-52,.cls-53,.cls-54,.cls-55,.cls-56,.cls-57,.cls-58,.cls-59,.cls-6,.cls-60,.cls-61,.cls-62,.cls-63,.cls-64,.cls-65,.cls-66,.cls-67,.cls-68,.cls-69,.cls-7,.cls-70,.cls-71,.cls-72,.cls-73,.cls-74,.cls-75,.cls-76,.cls-77,.cls-78,.cls-79,.cls-8,.cls-80,.cls-81,.cls-82,.cls-83,.cls-84,.cls-85,.cls-86,.cls-87,.cls-88,.cls-89,.cls-9,.cls-90,.cls-91,.cls-92,.cls-93,.cls-94,.cls-95,.cls-96,.cls-97,.cls-98,.cls-99{fill-rule:evenodd;}.cls-3{fill:#fcfdfe;}.cls-4{fill:#b7c1c8;}.cls-5{fill:#fbfdfe;}.cls-6{fill:#fdc003;}.cls-7{fill:#fcfdfd;}.cls-8{fill:#8973b6;}.cls-9{fill:#bcc6cd;}.cls-10{fill:#6dc3c6;}.cls-11{fill:#bbc5cc;}.cls-12{fill:#b6c0c8;}.cls-13{fill:#bbc6cf;}.cls-14{fill:#bcc8d1;}.cls-15{fill:#b8c1c8;}.cls-16{fill:#9da4a9;}.cls-17{fill:#b9c1c9;}.cls-18{fill:#6cc4c4;}.cls-19{fill:#bcc7d1;}.cls-20{fill:#d2d7dc;}.cls-21{fill:#9da5a9;}.cls-22{fill:#bfc8ce;}.cls-23{fill:#9da6ab;}.cls-24{fill:#b8c1c9;}.cls-25{fill:#acb4b9;}.cls-26{fill:#afb6bc;}.cls-27{fill:#aeb4ba;}.cls-28{fill:#c2cad0;}.cls-29{fill:#b2bbbf;}.cls-30{fill:#8c9598;}.cls-31{fill:#c1cad1;}.cls-32{fill:#c0c7cf;}.cls-33{fill:#c1c9cf;}.cls-34{fill:#c3cbd1;}.cls-35{fill:#bfc7d0;}.cls-36{fill:#8f989a;}.cls-37{fill:#8a9298;}.cls-38{fill:#8e949a;}.cls-39{fill:#c1c9d3;}.cls-40{fill:#bfc8cc;}.cls-41{fill:#bac2cb;}.cls-42{fill:#c0c8d1;}.cls-43{fill:#b8c3ca;}.cls-44{fill:#e5e9ee;}.cls-45{fill:#b9c2c9;}.cls-46{fill:#bcc6c8;}.cls-47{fill:#bfc5d0;}.cls-48{fill:#bdc7d0;}.cls-49{fill:#b8bfc9;}.cls-50{fill:#bec3d2;}.cls-51{fill:#b9c2ca;}.cls-52{fill:#67c3c4;}.cls-53{fill:#b5c5cd;}.cls-54{fill:#c2c2d4;}.cls-55{fill:#8572b0;}.cls-56{fill:#71c3ca;}.cls-57{fill:#c3c5b3;}.cls-58{fill:#b9c8c7;}.cls-59{fill:#bec5c2;}.cls-60{fill:#c4c2d0;}.cls-61{fill:#bcc7c4;}.cls-62{fill:#b9c5d3;}.cls-63{fill:#bac7c7;}.cls-64{fill:#8e74bd;}.cls-65{fill:#c0cad0;}.cls-66{fill:#c1c2d0;}.cls-67{fill:#b8c8c7;}.cls-68{fill:#c5c7da;}.cls-69{fill:#64c4c1;}.cls-70{fill:#c0c4ce;}.cls-71{fill:#fefefe;}.cls-72{fill:#fdfbfa;}.cls-73{fill:#febf07;}.cls-74{fill:#febc07;}.cls-75{fill:#8874af;}.cls-76{fill:#8b72bc;}.cls-77{fill:#bdc5ca;}.cls-78{fill:#64c5c2;}.cls-79{fill:#72c1c7;}.cls-80{fill:#68c4c1;}.cls-81{fill:#bfc2c6;}.cls-82{fill:#b3c4c6;}.cls-83{fill:#b1b9bf;}.cls-84{fill:#c3cbd2;}.cls-85{fill:#8d9596;}.cls-86{fill:#8b9399;}.cls-87{fill:#bec7cd;}.cls-88{fill:#bac3ca;}.cls-89{fill:#99a0a4;}.cls-90{fill:#969fa4;}.cls-91{fill:#c0c7ce;}.cls-92{fill:#fef7ea;}.cls-93{fill:#a7a7a7;}.cls-94{fill:#fddfa9;}.cls-95{fill:#1b1b1b;}.cls-96{fill:#353535;}.cls-97{fill:#fcfcfc;}.cls-98{fill:#f7c994;}.cls-99{fill:#eab986;}.cls-100{fill:#d7d7d7;}.cls-101{fill:#b4344a;}.cls-102{fill:#f6d29d;}.cls-103{fill:#201f1c;}.cls-104{fill:#3e3f3f;}.cls-105{fill:#5c5d5e;}.cls-106{fill:#393839;}.cls-107{fill:#1f1c1e;}.cls-108{fill:#f5d29e;}.cls-109{fill:#211e1f;}.cls-110{fill:#3c4143;}.cls-111{fill:#525859;}.cls-112{fill:#201f20;}.cls-113{fill:#28221d;}.cls-114{fill:#28211d;}.cls-115{fill:#1e1916;}.cls-116{fill:#1f1815;}.cls-117{fill:#efb87a;}.cls-118{fill:#171211;}.cls-119{fill:#44392e;}.cls-120{fill:#35383b;}.cls-121{fill:#df5c69;}.cls-122{fill:#fbdfaa;}.cls-123{fill:#241d19;}.cls-124{fill:#fcdfa9;}.cls-125{fill:#734a00;}.cls-126{font-size:17.26px;fill:#e93200;font-family:Rockwell-ExtraBold, Rockwell Extra Bold;}</style><radialGradient id="radial-gradient" cx="94.32" cy="94.32" r="94.32" gradientUnits="userSpaceOnUse"><stop offset="0" stop-color="#fff"/><stop offset="0.13" stop-color="#f4d6d2"/><stop offset="0.28" stop-color="#e9aaa2"/><stop offset="0.44" stop-color="#e0867a"/><stop offset="0.59" stop-color="#d96a5c"/><stop offset="0.73" stop-color="#d45646"/><stop offset="0.87" stop-color="#d14a38"/><stop offset="1" stop-color="#d04634"/></radialGradient></defs><title>Artboard 16</title><circle class="cls-1" cx="94.32" cy="94.32" r="94.32"/><path class="cls-2" d="M145.67,28.4c.92,1,.53,2.17.53,3.26q0,62.28.08,124.56c0,2.71-.66,3.49-3.43,3.48-30.34-.1-60.68-.06-91-.08-1.08,0-2.3.43-3.22-.59a3,3,0,0,0,.64-2.05q0-63.27,0-126.52a3,3,0,0,0-.64-2c.92-1,2.14-.58,3.22-.58q45.3,0,90.61,0c1.09,0,2.3-.43,3.23.57a2.54,2.54,0,0,0-.64,2q0,60.36,0,120.7a7.89,7.89,0,0,1-.23,3.35,7.85,7.85,0,0,0,.23-3.37q0-59.1,0-118.2C145.05,31.4,144.64,29.79,145.67,28.4Z"/><path class="cls-3" d="M78.56,51.29c5.49,0,11,.17,16.46.07,2.22,0,2.8.74,2.78,2.86-.08,15.63-.06,31.27-.07,46.9a.85.85,0,0,1-1,.15,7.09,7.09,0,0,0-1-.35c-9.92-.26-19.84,0-29.76-.11a27,27,0,0,1-4.32-.14c-1-.81-1.39.25-1.94.76A2.33,2.33,0,0,1,58,101.2l-.25,0h-.25q-.28-24.86,0-49.72l20.41-.15A.47.47,0,0,1,78.56,51.29Z"/><path class="cls-4" d="M49.89,158.4a1.33,1.33,0,0,1-1.27.63q0-62.71,0-125.42c0-1.73,0-3.46,0-5.19a1.33,1.33,0,0,1,1.27.63c-.58,1-.31,2-.31,3q0,61.64,0,123.27C49.58,156.37,49.31,157.43,49.89,158.4Z"/><path class="cls-5" d="M58.05,151.53q0-9-.07-17.92c0-.7-.1-1.46.57-2,1.43.12,1.73.84,1.1,2.06-1,4.44,0,8.93-.43,12.42V135.73a3.12,3.12,0,0,1,.88-2.53c1.25-1.53,3-1.76,4.77-1.77,9.42,0,18.83-.07,28.25,0,2.16,0,4.27.66,6.47.57s3.38,1.11,3.4,3.43c0,4.65-.08,9.31.07,14a2,2,0,0,1-1.92,2.33,8.91,8.91,0,0,1-1.55.11c-13.65,0-27.3.14-41-.12A1.67,1.67,0,0,1,58.05,151.53Z"/><path class="cls-5" d="M135.69,152.16c-7.33,0-14.67,0-22,.08-2,0-3-.42-2.91-2.72.15-5.26.15-10.54,0-15.8-.07-2.28.83-2.75,2.89-2.72,7.34.11,14.67.06,22,.08.56.81.26,1.76.45,2.64a138.63,138.63,0,0,0,0,15.79C135.94,150.39,136.22,151.34,135.69,152.16Z"/><path class="cls-6" d="M78.4,114.27l.18,3.09a1.72,1.72,0,0,1-.72,2.45l-1.23,2a3.29,3.29,0,0,1-2.64,1.7.54.54,0,0,0-.47.11,4.78,4.78,0,0,1-5,0,7.61,7.61,0,0,1-5-7.85,7.38,7.38,0,0,1,5.85-6.63,9.77,9.77,0,0,0,1.13-.44.56.56,0,0,1,1,0l4.37,1.82a2.71,2.71,0,0,1,1.32,1.9l.55.59A1,1,0,0,1,78.4,114.27Z"/><path class="cls-7" d="M59.84,133.52l-1.29-1.89a4.93,4.93,0,0,0,.05-.54,24.86,24.86,0,0,1,6.08-.67q17.49,0,35,0c3.93,0,4.3.38,4.32,4.23,0,3.51,0,7,0,10.52,0,1.12.19,2.29-.6,3.28-.13,4.34-.13,4.34-4.64,4.34-12.59,0-25.18,0-37.77,0-1,0-2.65.83-2.92-1.22,1.43-1.18,3-.66,4.66-.65,12.62.09,25.23.05,37.84.06,1.24,0,2.46-.1,2.07-1.8-1-4.51-.35-9.06-.44-13.58-.05-2-.62-2.54-2.64-2.73-11-1-22.08-.31-33.11-.6A18.71,18.71,0,0,0,59.84,133.52Z"/><path class="cls-8" d="M97.83,124.15c-.92-.88-2.6-.33-3.26-1.7-.9.32,1.33-1.78-.54-.71-1.61.33-1.7-1.22-2.43-2a7,7,0,0,1,1.84-9.25c1.54-.13,2.69-1.47,4.3-1.4a1.1,1.1,0,0,1,1.31,0c.66.11,1.43-.06,1.85.68a32,32,0,0,0,3.74,2.5c2.88,2.22,1,9.42-2.33,10.58-1,.33-1.83.83-2.74,1.25A1.23,1.23,0,0,1,97.83,124.15Z"/><path class="cls-9" d="M102.12,72.58c1,1.22,2.92.07,3.84,1.57-1.1.69-2.57-1.19-3.54.46-.52.88,0,1.56.33,2.29a1.13,1.13,0,0,0,.61.91,7.37,7.37,0,0,0,.93.11c9.53,0,19,0,28.56,0,1.41,0,2.92-.3,4.13.83-.75,2.15-2.65,1.58-4.15,1.6-7.76.09-15.51.07-23.27,0-2.69,0-5.36.17-8,.41-1.19-1.17-.87-2.69-.88-4.1-.09-7,.09-14.05-.1-21.06a3.66,3.66,0,0,0-.71-1.28c-.07-.14-.14-.29-.2-.44-.39-1.14.88-2.65-.85-3.54-.47-.24-.1-.72.22-1,.85-.75,1.22.36,1.84.52.89.21.88.84.11,1.17s-.83.67-.48,1.12c.52.69,1.09,0,1.64-.14a2.12,2.12,0,0,1,.47.64,2.22,2.22,0,0,1,0,1.2,2,2,0,0,1-.47.64l0,4.42a2.74,2.74,0,0,1,.45.51c.13.19.26.38.4.56.48.37,1.19.25,1.61.74,0,1.73-3.14.88-2.49,3.1a2.08,2.08,0,0,1,.45.53,4,4,0,0,1,.17.68,5.3,5.3,0,0,1,0,.69c.93,1,2.14.57,3.23.57,9.4,0,18.8,0,28.2,0,.92,0,2.52-.55,2.51.91s-1.61.9-2.53.9c-8.16,0-16.32,0-24.48,0-2,0-3.8-1.15-6-.15-1.43.64-.88,1.24-.9,2a5.46,5.46,0,0,1,0,1,4.28,4.28,0,0,1-.17,1A1.93,1.93,0,0,1,102.12,72.58Z"/><path class="cls-10" d="M120.74,113.64c.49-1.6,1.78-2.42,3.13-3.17a1.78,1.78,0,0,1,1,.5,2,2,0,0,1,.52.87c.92.22,1-.89,1.71-1.06.91-.64,2.2,0,3-.9a2.28,2.28,0,0,1,2.57,1.21c1.29,2.14.13,4.27,0,6.41-.5,1.2.05,2.46-.22,3.67-1.89,2.41-4.7,2-7.25,2.31a2.08,2.08,0,0,1-1.33-1.13c0-.43-.22-.59-.62-.57-.21,0-.41,0-.62-.06a4.27,4.27,0,0,1-2-3.12,8,8,0,0,0,0-3.76A1.35,1.35,0,0,1,120.74,113.64Z"/><path class="cls-11" d="M101.5,80.66c.89-1.27,2.19-1.26,3.56-1.26q14.35,0,28.69,0c1.08,0,2.29.41,3.2-.6a.48.48,0,0,1,.62,0c1,1.27.53,2.26-.62,3.11-1.29,1.24-2.92.83-4.42.86-9.3.15-18.59-.23-27.88.21a4.68,4.68,0,0,1-2.26.17,2.38,2.38,0,0,1-1-.48A1.51,1.51,0,0,1,101.5,80.66Z"/><path class="cls-12" d="M145.67,28.4q0,63.69-.1,127.36c0,.78,1.44,2.78-1.16,2.64.58-1,.31-2,.31-3q0-61.64,0-123.27c0-1,.27-2.08-.31-3a1.35,1.35,0,0,1,1.27-.64Z"/><path class="cls-13" d="M49.89,158.4c-1-.92-.61-2.14-.61-3.22q0-61.46,0-122.91c0-1.09-.41-2.3.61-3.22Z"/><path class="cls-14" d="M144.41,29.05c1,.92.61,2.13.61,3.22q0,61.45,0,122.91c0,1.08.41,2.3-.61,3.22Z"/><path class="cls-9" d="M101.5,82.53h.63a2.44,2.44,0,0,1,.43.53,3,3,0,0,1,.19.65,4,4,0,0,1,0,.69,5.07,5.07,0,0,0-.63,3.1,1.93,1.93,0,0,1,.45.58,3.47,3.47,0,0,1,.16.71,6.15,6.15,0,0,0,.17,1,1.57,1.57,0,0,0,.42.57c.91.52,2,1,.67,2.18a2.89,2.89,0,0,0-.84,1.89c-.05.38-.11.76-.13,1.14s.07.77.1,1.15c0,1.2,1.72,2.25.32,3.57a6.26,6.26,0,0,1-.72.91c-.18.17-.36.36-.53.55-2.92.7.89-2.09-2-1.58-.51.28.41,1.78-.16,2.74a26.34,26.34,0,0,1-1.7-10.88c.1-11.7,0-23.41.06-35.11,0-1.09-.69-2.63,1.22-3h0a3.66,3.66,0,0,1,.85,2.59c0,13,.21,26-.13,39,.59-3.19.12-6.34.29-9.47C100.71,84.79,100.46,83.5,101.5,82.53Z"/><path class="cls-15" d="M57.48,51.45a27.32,27.32,0,0,1,.4,3.35q0,21.51,0,43a25.38,25.38,0,0,1-.41,3.34c-1.12-.71-.72-1.85-.73-2.82q0-22,0-44.08C56.75,53.29,56.35,52.15,57.48,51.45Z"/><path class="cls-16" d="M102.13,71.92V70.74a2.57,2.57,0,0,1,1.78-.32q16.56,0,33.12,0a2.53,2.53,0,0,1,1.78.33v1.17a2.17,2.17,0,0,1-1.47.34H103.6A2.19,2.19,0,0,1,102.13,71.92Z"/><path class="cls-17" d="M103.38,148.45c0-4.65-.19-9.3,0-13.94.12-2.81-1-3.48-3.59-3.46-13.73.1-27.46,0-41.19,0,.84-1.13,2.06-.51,3.11-.68,1.07-.57,2.23-.28,3.34-.28,11.25,0,22.49,0,33.74,0,1.11,0,2.27.3,3.34-.31.9,0,1.8,0,1.86,1.25a101.22,101.22,0,0,1,0,17.41Z"/><path class="cls-18" d="M125.17,123.48c2.15-1.14,4.78-.9,6.8-2.4.77-1.24.34-2.48,0-3.73.24-2.09.48-4.17.71-6.26a5.84,5.84,0,0,1,2.59,6.62c-.63,3-2.09,5.3-5.39,5.91a4.42,4.42,0,0,0-1.06.54,1.21,1.21,0,0,1-1.81,0C126.57,123.46,125.8,123.66,125.17,123.48Z"/><path class="cls-11" d="M138.77,88.77c1.24-.25,2.42,1.8,3.78-.28,0,4.8,0,9.21,0,13.63,0,.56.58,1.63-.66,1.65-.92,0-.66-.72-.66-1.36,0-1.55-1.3-1.6-2.39-1.84l-.37-.15c-1.35-1.09.47-2.51-.38-3.65a1,1,0,0,1,.18-.78,3.3,3.3,0,0,1,.7-.47c2.42-.87,2.11-2.45,1.08-4.2-.24-.13-.48-.27-.71-.42a2.22,2.22,0,0,1-.79-1A1.14,1.14,0,0,1,138.77,88.77Z"/><path class="cls-19" d="M102.13,129.79c-.92,1-2.13.6-3.22.6q-18.6,0-37.2,0c.91-1,2.13-.6,3.21-.6Q83.52,129.76,102.13,129.79Z"/><path class="cls-20" d="M97.15,101.12a3.74,3.74,0,0,0,.58,0c-.19.24-.39.47-.59.7-1.18.56-2.44.27-3.65.27q-15.61,0-31.23,0c-1,0-2.07.25-3-.28A1.33,1.33,0,0,1,58,101.2l1.87-.06a4.05,4.05,0,0,1,2.67-.57H94.46A4.16,4.16,0,0,1,97.15,101.12Z"/><path class="cls-21" d="M138.77,88.77c0,.4,0,.8,0,1.2-1,1-2.25.88-3.47.88q-14.2.06-28.41,0c-1.62,0-3.3.08-4.77-.89V88.78a1.86,1.86,0,0,1,1.61-.44c9.53.36,19.06.07,28.59.15a46.36,46.36,0,0,1,5.27.24h.57Z"/><path class="cls-22" d="M104.61,60.77c-.8-.31-2.15,1.54-2.48-.63a4.25,4.25,0,0,1,3-.61h30.74a4.31,4.31,0,0,1,3,.6c-.91,1-2.12.61-3.21.62C125.27,60.78,114.94,60.76,104.61,60.77Z"/><path class="cls-23" d="M102.14,53.89V52.72a1.2,1.2,0,0,1,1.09-.11q17.24.18,34.46,0a1.35,1.35,0,0,1,1.11.09c0,.39,0,.78,0,1.18-.18.1-.35.29-.53.29q-17.81.12-35.6,0C102.49,54.17,102.32,54,102.14,53.89Z"/><path class="cls-24" d="M59.22,101.82H97.14c-.71.86-1.7.6-2.59.6q-16.36,0-32.74,0C60.92,102.42,59.93,102.68,59.22,101.82Z"/><path class="cls-25" d="M102.17,65.17c0-.22,0-.44,0-.66.85-.55,1.81-.3,2.71-.3q15.63,0,31.26,0c.9,0,1.86-.25,2.71.3,0,.51-.1,1-.65,1.21-1.17-.59-2.43-.28-3.64-.28-9.77,0-19.54,0-29.31,0A6.82,6.82,0,0,1,102.17,65.17Z"/><path class="cls-26" d="M102.18,83.22c0-.23,0-.46-.05-.69H104c2-.64,4.08-.26,6.12-.27,8.56,0,17.11,0,25.67,0,1,0,2.06-.27,3,.3a1.32,1.32,0,0,1-.65,1.29l-.59,0c-10.6-.05-21.2,0-31.8,0C104.56,83.76,103.28,84,102.18,83.22Z"/><path class="cls-27" d="M102.18,101.25l.57-.69a3.71,3.71,0,0,1,1.62-.72c10.94-.26,21.87-.23,32.81,0a6.18,6.18,0,0,1,1.63.75h0a1.19,1.19,0,0,1-.62,1.23c-1-.57-2-.3-3-.3-10,0-20,0-29.93,0A7.32,7.32,0,0,1,102.18,101.25Z"/><path class="cls-28" d="M102.78,52.73h-.64c0-.22,0-.44,0-.66q18,0,36.06,0a1,1,0,0,1,.57.13c.09.08,0,.33.05.51l-.64,0c-3.78.56-7.58.25-11.37.22C118.79,52.89,110.78,53.31,102.78,52.73Z"/><path class="cls-29" d="M102.12,78.17c0-.23,0-.45,0-.68,7.29-.53,14.6-.06,21.89-.25,4.71-.13,9.44.41,14.14-.31.66.42.62.83,0,1.25-1.28.6-2.64.28-4,.28q-14.53,0-29.08,0C104.14,78.46,103.09,78.73,102.12,78.17Z"/><path class="cls-30" d="M102.17,59.45c0-.16,0-.33,0-.49l34.61-.06c.71,0,1.46-.09,2,.54-.5.51-1.15.38-1.75.38H103.93C103.32,59.82,102.68,59.94,102.17,59.45Z"/><path class="cls-29" d="M102.17,59.45h36.59c0,.23,0,.46.05.69H102.13C102.14,59.91,102.15,59.68,102.17,59.45Z"/><path class="cls-31" d="M102.14,53.89h36.67c-.88,1.09-2.11.64-3.19.65q-16.74,0-33.5,0C102.13,54.32,102.13,54.11,102.14,53.89Z"/><path class="cls-32" d="M138.81,64.51H102.13c0-.21,0-.42,0-.64q16.75,0,33.49,0C136.69,63.9,137.91,63.47,138.81,64.51Z"/><path class="cls-33" d="M138.81,70.75H102.13l.62-.65q16.43,0,32.87,0C136.7,70.11,137.93,69.68,138.81,70.75Z"/><path class="cls-34" d="M102.13,71.92h36.68c-.89,1.07-2.11.64-3.19.64q-16.75,0-33.5,0C102.13,72.36,102.13,72.14,102.13,71.92Z"/><path class="cls-35" d="M102.75,84.4l-.6-.69c7.4-.53,14.8-.19,22.2-.21,4.61,0,9.24-.39,13.84.27l0,.06c-.95,1-2.15.54-3.24.55Q118.84,84.43,102.75,84.4Z"/><path class="cls-36" d="M102.17,65.17l33.71,0c.8,0,1.68-.2,2.28.6l-35.41,0Z"/><path class="cls-37" d="M138.2,76.93c-.59.82-1.47.62-2.27.62q-16.89,0-33.76-.06l.58-.59Z"/><path class="cls-38" d="M102.18,101.25l33.73-.06c.8,0,1.68-.2,2.27.61l-36,0A1.88,1.88,0,0,1,102.18,101.25Z"/><path class="cls-39" d="M103.39,88.78h-1.26c0-.22,0-.43,0-.65,1.6-.63,3.26-.28,4.89-.28,9,0,17.94,0,26.91,0,1,0,2.06-.26,3,.29a1.24,1.24,0,0,1,1.22.59v.09c-7.39.54-14.79.18-22.18.21C111.8,89,107.58,89.37,103.39,88.78Z"/><path class="cls-40" d="M102.12,78.17h36.07l-.62.62H137q-15.81,0-31.61,0C104.25,78.78,103,79.2,102.12,78.17Z"/><path class="cls-41" d="M137,88.13H102.12V87.5q15.81,0,31.61,0C134.82,87.53,136,87.11,137,88.13Z"/><path class="cls-42" d="M138.81,82.54l-34.81,0c.91-1,2.13-.59,3.21-.59,9.91,0,19.83,0,29.74,0C137.63,81.93,138.37,81.8,138.81,82.54Z"/><path class="cls-43" d="M112.9,152.89h22.6v.31H112.78Z"/><path class="cls-44" d="M135.69,133.53c0-.82,0-1.63,0-2.45.82.4.59,1.18.69,1.85a114.32,114.32,0,0,1,0,17.36c-.08.68.12,1.45-.67,1.87v-2.48A92.67,92.67,0,0,1,135.69,133.53Z"/><path class="cls-45" d="M78.56,51.29h-.67c.15-.91.78-1.11,1.58-1.11a160.62,160.62,0,0,1,17,.62c-4.77,0-9.53,0-14.29,0C81,50.85,79.66,50.42,78.56,51.29Z"/><path class="cls-46" d="M74,123.51l2.64-1.7c0,5.47-.74,6.25-6.08,6a19,19,0,0,0,3.57-1.53C75.24,125.42,76.38,124.29,74,123.51Z"/><path class="cls-47" d="M93.44,110.52c-2.19,2.77-3,5.81-1.84,9.25-.25.07-.67.26-.74.17C88.8,117.42,90.33,111.88,93.44,110.52Z"/><path class="cls-48" d="M104,148.45V131c1.35,3.76.42,7.64.56,11.47C104.62,144.47,105.24,146.58,104,148.45Z"/><path class="cls-49" d="M136.36,150.29q0-8.68,0-17.36c1.28,4.37.31,8.85.54,13.27C137,147.55,137.47,149.06,136.36,150.29Z"/><path class="cls-50" d="M77.86,119.81l.72-2.45h1.16c.21.76,1.6.73,1.24,1.87v.62a3.61,3.61,0,0,1-.62,2.49C78.33,122.68,78.9,120.44,77.86,119.81Z"/><path class="cls-51" d="M59.24,50.35H73.37v.26H59.24Z"/><path class="cls-52" d="M124.51,111.14l-.64-.67c1.78-1.13,3.53-2.62,5.67-.64C128.62,110.77,127.56,111,124.51,111.14Z"/><path class="cls-53" d="M120.85,118.56l1.75,3.16c-2.66-1.47-3.25-4-1.86-8.08l.06,1.24A5.73,5.73,0,0,1,120.85,118.56Z"/><path class="cls-54" d="M67.93,125.43l1.25-1.19c1.2-.71,2.18-.25,3.09.58a1.27,1.27,0,0,1-.62,1.24C70.26,126.76,69.1,126,67.93,125.43Z"/><path class="cls-55" d="M104.64,112.33c-1.72-.13-3.3-.46-3.74-2.5C102.75,109.77,103.76,111,104.64,112.33Z"/><path class="cls-56" d="M124.51,111.14c1.45-1.32,3.53-.19,5-1.31l.57,0c-.4,2-2,1-3.11,1.26-.49.6-.94,1.31-1.86.62Z"/><path class="cls-57" d="M72.27,124.82l-3.09-.58-.63-.6,5,0Z"/><path class="cls-58" d="M81,119.22c-.18-.78-2.16-.35-1.24-1.87,1,.19,1-1,1.78-1.27C81.54,117.21,82,118.33,81,119.22Z"/><path class="cls-59" d="M77.2,112.47a2.44,2.44,0,0,1-1.32-1.9c1,.07,1.33-.85,2-1.29a1.52,1.52,0,0,1,.62,1.86A2.2,2.2,0,0,0,77.2,112.47Z"/><path class="cls-60" d="M127,124.16h1.81c1.08,1.13-.08,1.44-.73,1.57C126.7,126,127.13,124.86,127,124.16Z"/><path class="cls-61" d="M80.36,113c.09-.63.24-1.25,1.07-1.11.22,0,.58.48.55.55-.38.66-.83,1.29-1.27,1.91,0,0-.2-.07-.22-.14a3.87,3.87,0,0,1-.13-.59c-.22-.14-.29-.27-.22-.41S80.28,113,80.36,113Z"/><path class="cls-62" d="M71.51,108.75l-1,0c-.31-.19-.91-.51-.9-.54a1.37,1.37,0,0,1,2-.57C72.4,108,71.91,108.41,71.51,108.75Z"/><path class="cls-63" d="M67.93,125.43l3.72.63C70.22,127,68.91,127.19,67.93,125.43Z"/><path class="cls-58" d="M80.36,122.33c.09-.86-.29-1.84.62-2.49C82.55,121.12,81.71,121.79,80.36,122.33Z"/><path class="cls-64" d="M94,121.74c.24-1.76,1.56-.31,2.21-.9.32,1.63-1.39.79-1.67,1.61Z"/><path class="cls-65" d="M99.05,109.15l-1.31,0c-.31-.67-.24-1.14.64-1.08a10,10,0,0,1,1.33.22Z"/><path class="cls-66" d="M78.49,111.14c-.21-.62-.42-1.24-.62-1.86l.62-.63c.33.35,1,.52.63,1.24C78.84,110.27,79.73,111.24,78.49,111.14Z"/><path class="cls-59" d="M80.36,113v.62l-2,.65-.65-1.21Z"/><path class="cls-67" d="M79.12,109.89l-.63-1.24a1.67,1.67,0,0,1,1.53.74c.17.32.31,1,.19,1.06C79.64,110.82,79.56,110,79.12,109.89Z"/><path class="cls-68" d="M97.83,124.15h1.74l.58.15c-.67,1-1.58.41-2.4.36,0,0-.1-.18-.09-.26S97.77,124.24,97.83,124.15Z"/><path class="cls-69" d="M123.22,121.78c.39-.61,1-.81,1.35-.17s-.34.63-.73.74Z"/><path class="cls-70" d="M58,29.67c1.19-1.21,1.86-.39,2.49.62Z"/><path class="cls-71" d="M97.15,101.12l-37.31,0c.27-.36-.61-1.33.62-1.2,1,.59,2,.31,3,.31,10.21,0,20.42,0,30.63,0,1,0,2.07-.27,3,.29Z"/><path class="cls-72" d="M97.15,100.57q-16.74,0-33.48,0c-1.08,0-2.3.41-3.21-.61q16.74,0,33.47,0C95,100,96.23,99.54,97.15,100.57Z"/><path class="cls-7" d="M59.43,133.49c.6,5.12.07,10.23.71,15.47a1,1,0,0,1-1.46-1C58.73,143.14,58.09,138.23,59.43,133.49Z"/><path class="cls-71" d="M135.69,133.53v16.15c-1.34-4.37-.28-8.86-.58-13.28C135,135.43,134.76,134.33,135.69,133.53Z"/><path class="cls-73" d="M72.6,121.36c-1.12-.15-1.61-.06-1.85-.27-1.17-1-1.09,2.11-2.31.66-.11-.13-.19-.46-.11-.56.84-1.1,2-.67,3.11-.65C71.6,120.55,71.76,120.75,72.6,121.36Z"/><path class="cls-74" d="M75,112.44c-.29.24-.56.6-.9.7s-.48-.3-.31-.52a4.26,4.26,0,0,1,.92-.69Z"/><path class="cls-75" d="M103,117.85c-.23-1.29-.55-2.47,0-3.75A6,6,0,0,1,103,117.85Z"/><path class="cls-76" d="M99.58,110.06c-.56.68-1.19.34-2,.4C98.28,109.52,99,110.14,99.58,110.06Z"/><path class="cls-77" d="M100.88,98.7c-1.89-.4-1.21-1.93-1.21-3,0-13.92,0-27.85,0-41.77h1.24a3.43,3.43,0,0,1,.3,2.11V96.59A3.42,3.42,0,0,1,100.88,98.7Z"/><path class="cls-2" d="M100.88,98.7V53.92c1,.92.6,2.13.6,3.21,0,7.85,0,15.69,0,23.53v1.87c0,4.43,0,8.85,0,13.28C101.48,96.79,101.83,97.89,100.88,98.7Z"/><path class="cls-78" d="M125.14,111.76l1.86-.62c0,.94-.8,1.29-1.28,1.88s-.89.59-1.24.11C123.93,112.38,125,112.29,125.14,111.76Z"/><path class="cls-79" d="M132,117.35c1,1.25,1.45,2.49,0,3.73C132,119.84,131.46,118.6,132,117.35Z"/><path class="cls-80" d="M120.85,118.56c0-1.23,0-2.45,0-3.68A2.91,2.91,0,0,1,120.85,118.56Z"/><path class="cls-81" d="M74.76,30.29h-5a1.29,1.29,0,0,1-1.25-.62C70.61,30,72.79,29,74.76,30.29Z"/><path class="cls-82" d="M110.21,29.67c.36,1.16-.69.57-1,.75-.65.35-.78-.23-.82-.75Z"/><path class="cls-2" d="M140.06,90.61c3.12.27.78,2.71,1.42,4,.56,1.16-1.65,1.12-2.67,1.56-.59-.57-1.32-.37-2-.38q-15,0-30,0c-1.4,0-2.92.32-4.07-.9-.43-.73-.83-1.66-.06-2.18,2.07-1.4,0-1.53-.57-2.14a5.47,5.47,0,0,1,3.25-.17c8.28.39,16.57.09,24.86.16C133.5,90.63,136.78,90.68,140.06,90.61Z"/><path class="cls-83" d="M138.19,95a1.23,1.23,0,0,1,.62,1.24h-.62c-1.19,1.14-2.71.85-4.12.85-9.1,0-18.2,0-27.29,0-1.41,0-2.88.27-4-.89l-.58-.68c6.77-.55,13.56-.06,20.34-.25C127.74,95.13,133,95.7,138.19,95Z"/><path class="cls-84" d="M105.24,90.62h-3.12c0-.22,0-.44,0-.65h36.65l.65.64c-1.8.62-3.67.28-5.5.29q-12.83.06-25.66,0C107.26,90.9,106.2,91.16,105.24,90.62Z"/><path class="cls-85" d="M138.19,83.77l-36-.06a3.91,3.91,0,0,1,0-.49q16.86,0,33.74-.06C136.72,83.16,137.6,83,138.19,83.77Z"/><path class="cls-86" d="M138.19,95c-.59.82-1.47.61-2.27.61l-33.75,0,.58-.6Z"/><path class="cls-2" d="M102.75,96.21h3.73a7.18,7.18,0,0,1,1.14,1.26,1.93,1.93,0,0,1-.64,2.71c-1,.27-2.06-.28-3,.38h-1.25c-.34-.68,1.62-1.49-.25-2.23C101.65,98,102.5,96.92,102.75,96.21Z"/><path class="cls-87" d="M107.1,97.45a1.26,1.26,0,0,1-.62-1.24h31.71v.61l-.39.46a8.22,8.22,0,0,1-4.72,1.13c-7.39,0-14.78,0-22.17,0A6.46,6.46,0,0,1,107.1,97.45Z"/><path class="cls-88" d="M105.24,90.62h34.82c-.1.46.17,1.36-.47,1.27-10.35-1.5-20.76-.21-31.13-.66C107.37,91.18,106.15,91.63,105.24,90.62Z"/><path class="cls-2" d="M138.81,100.57l-1.24,0L137,100c-1.76-1.88-.35-2.54,1.21-3.15,1.62.19,1,1.33.55,1.86C138.05,99.48,138.66,100,138.81,100.57Z"/><path class="cls-2" d="M141.38,96.33a2,2,0,0,1-.51,2,.88.88,0,0,1-.65-.31C140,97.26,140.33,96.7,141.38,96.33Z"/><path class="cls-89" d="M103.39,88.78l34.79,0c-.65.73-1.51.55-2.33.56H105.7C104.89,89.36,104,89.55,103.39,88.78Z"/><path class="cls-90" d="M102.78,52.73h35.38c-.63.76-1.51.57-2.31.57q-15.37,0-30.76,0C104.28,53.3,103.41,53.49,102.78,52.73Z"/><path class="cls-91" d="M137.57,99.94v.61H104c.87-1,2-.47,3.1-.62a5.31,5.31,0,0,1,3.79-1c7.51,0,15,0,22.55,0A7.29,7.29,0,0,1,137.57,99.94Z"/><path class="cls-11" d="M137.57,99.94H107.1c0-.83.6-1.66,0-2.49,7.61,0,15.23,0,22.84,0a32.16,32.16,0,0,0,8.25-.63C137,97.67,136.14,98.58,137.57,99.94Z"/><path class="cls-71" d="M61.11,87.54q0-15,0-30c0-.58.08-.78.73-.78,5,0,9.92,0,14.87,0a.19.19,0,0,1,0,.28,12.48,12.48,0,0,1-2.87.62,5.92,5.92,0,0,0-4,3,9.56,9.56,0,0,0-1.45,6.5,2.24,2.24,0,0,1,0,.58,1.26,1.26,0,0,1-.16.42,5.52,5.52,0,0,0-.42,1c-.63,2-.23,3.52,1.26,4.67a5.06,5.06,0,0,1,1.08,1.93,20.9,20.9,0,0,1,1.65,3.4c0,.42,0,.84,0,1.26a5.06,5.06,0,0,1-.09,1.1,1.15,1.15,0,0,1-.42.61,8.13,8.13,0,0,0-.85.38c-.14.09-.29.17-.43.27a6.23,6.23,0,0,0-.82.61c-.52.36-1,.73-1.58,1-1.38.58-2.76,1.16-4.17,1.67a4.21,4.21,0,0,0-2.11,1.47A.24.24,0,0,1,61.11,87.54Z"/><path class="cls-92" d="M76.7,56.94v-.19h1.38a1.09,1.09,0,0,1,0,.18A1,1,0,0,1,76.7,56.94Z"/><path class="cls-93" d="M61.11,87.54a.25.25,0,0,0,.19,0,.83.83,0,0,1,0,1.2h-.19Z"/><path class="cls-94" d="M76.7,56.94h1.39c3,.17,5.73,1,7.34,3.79a9.81,9.81,0,0,1,1.14,7.1,1.54,1.54,0,0,1-1.39.2c-.68-.11-1.37-.09-2-.19a3.94,3.94,0,0,0-2.1,0,20,20,0,0,0-2.43.44,18.28,18.28,0,0,1-2.22,0c-.89-.1-1.74-.36-2.62-.47a3.84,3.84,0,0,0-2.1,0c-.81.07-1.61.19-2.42.26a1.29,1.29,0,0,1-1-.23A9.82,9.82,0,0,1,71,58.71c1.08-1.06,2.42-1.2,3.72-1.54A13.89,13.89,0,0,1,76.7,56.94Z"/><path class="cls-94" d="M71.59,79.06,69,73.94A22.86,22.86,0,0,0,67.64,69c.22-.29,0-.72.33-1a3.81,3.81,0,0,0,1.13.89,1.29,1.29,0,0,1,.74,1.35,2.72,2.72,0,0,0,.64,1.88A2.1,2.1,0,0,0,72,73a2.61,2.61,0,0,0,1.49,0,4,4,0,0,0,3.1-3.25c.79-.7,1.28-.63,1.7.3A12,12,0,0,0,79,71.51,2.91,2.91,0,0,0,81,72.86a3.23,3.23,0,0,0,2.29,0,2.49,2.49,0,0,0,1.59-2.16c.11-.29.08-.59.16-.88.22-.79.65-1,1.55-.87-.08,1.78,0,3.58-1,5.2a23.91,23.91,0,0,1-2.41,4.76C81.69,81,79.88,82.7,77,82.65c-1.67,0-2.82-1.14-4-2.11A9.17,9.17,0,0,1,71.59,79.06Z"/><path class="cls-95" d="M83,95.18l-1.73.44c-.39-.38-.27-.84-.19-1.28.24-1.21.42-2.43.67-3.63.49-2.06.83-4.15,1.26-6.22a4.73,4.73,0,0,1,.38-1.21c.33-.39.56-.92,1.21-.87a20.75,20.75,0,0,1,2.56,1.81,1.18,1.18,0,0,1,.26.72c0,1.57,0,3.14,0,4.7a1.21,1.21,0,0,1-1,1.28c-.73.14-.69.43-.24.88a2.58,2.58,0,0,1,.64.86c.19.45.26.89-.25,1.2a4.79,4.79,0,0,1-1.95.81A1.81,1.81,0,0,0,83,95.18Z"/><path class="cls-95" d="M67.63,84.23l1.54-1a.79.79,0,0,1,1,.21,5.49,5.49,0,0,0,1.39.89,35.67,35.67,0,0,1,1.06,4.43c.18.66.28,1.34.42,2,.25,1.28.56,2.55.71,3.85.06.54.07,1.12-.79.9l-1-.26c-.34-.45,0-.72.28-1s.52-.42.33-.92a2.64,2.64,0,0,0-1.21,1.17c-.14.25-.19.61-.62.39a6.48,6.48,0,0,1-2.53-1c-.66-.48-.44-1-.08-1.54.25-.38.69-.61.84-1.07-.16-.28-.41-.17-.62-.17a.82.82,0,0,1-1-.79,47.9,47.9,0,0,1,0-5.62A.85.85,0,0,1,67.63,84.23Z"/><path class="cls-96" d="M86.57,93.86c.52-.94-.2-1.43-.71-2-.23-.25-.69-.43-.57-.84s.59-.3.93-.31c.72,0,1-.43,1-1.09,0-1.8,0-3.6,0-5.39,1.67.65,3.34,1.28,5,2a1.86,1.86,0,0,1,.76,3.22A17.44,17.44,0,0,1,86.57,93.86Z"/><path class="cls-96" d="M67.63,84.23c0,1.86,0,3.73,0,5.6,0,.76.11,1.26,1,.91.26-.1.65-.17.83.11s-.17.57-.37.81c-.52.63-1.56,1.06-.91,2.19a17.06,17.06,0,0,1-6.92-5.12v-1.2a2.1,2.1,0,0,1,1.39-1.39C64.35,85.52,66,84.87,67.63,84.23Z"/><path class="cls-97" d="M83.63,83.2c-.64,2.14-.87,4.37-1.39,6.54-.07.31-.17.63-.25,1-.9,0-1.28-.8-1.87-1.27-.79-.78-1.53-1.61-2.39-2.32a.72.72,0,0,1-.34-.57A4.75,4.75,0,0,1,79.13,85c1.44-1,2.85-2.15,4.31-3.18l.41.21A1.51,1.51,0,0,1,83.63,83.2Z"/><path class="cls-98" d="M83.44,81.82c-1.14,1.42-2.78,2.23-4.17,3.36-.58.47-1.18.91-1.77,1.37-.1.19-.23.31-.46.22-1.53-1.26-3.13-2.44-4.7-3.64-.48-.37-1.08-.71-.81-1.49,0-.4.06-.8.08-1.2.68-.11,1,.38,1.35.81a8.32,8.32,0,0,0,3.79,2.52,2.05,2.05,0,0,0,1.61-.08,10,10,0,0,0,3.7-2.52c.28-.3.54-.8,1.12-.54C83.25,81,83.15,81.46,83.44,81.82Z"/><path class="cls-99" d="M83.18,80.63c-1.09.45-1.66,1.52-2.59,2.19-2.28,1.63-4.09,1.62-6.4,0-1-.68-1.43-1.89-2.58-2.35,0-.46,0-.92,0-1.38,1,.29,1.48,1.16,2.17,1.77,2.58,2.27,5,2.06,7.62-.18a18.78,18.78,0,0,1,1.8-1.77Z"/><path class="cls-100" d="M80.28,89.32,82,90.69c-.22,1.28-.45,2.57-.67,3.86a2.16,2.16,0,0,0,0,1.07,6.9,6.9,0,0,1-2.22.2,1,1,0,0,1-.25-.72c.07-1.26-.28-2.5-.19-3.76A2.67,2.67,0,0,1,80.28,89.32Z"/><path class="cls-100" d="M73,95.47c.63.11.68-.21.58-.72-.26-1.35-.49-2.71-.74-4.06.53-.57.93-1.3,1.82-1.42a3.61,3.61,0,0,1,1.53,1.89,17,17,0,0,1-.4,4.66A6.61,6.61,0,0,1,73,95.47Z"/><path class="cls-101" d="M75.74,95.82c-.09-1.64.17-3.27.2-4.91a.44.44,0,0,1,.45.08,1.5,1.5,0,0,0,1.94.1.37.37,0,0,1,.52,0c.07,1.57.13,3.14.2,4.72A12.23,12.23,0,0,1,75.74,95.82Z"/><path class="cls-102" d="M85.59,74.12c-.2-.3,0-.56.11-.81a7,7,0,0,0,.47-3.06,1.73,1.73,0,0,1,.4-1.26.79.79,0,0,1,.22-.95,4.51,4.51,0,0,1,.26,4.61A2.73,2.73,0,0,1,85.59,74.12Z"/><path class="cls-103" d="M86.79,68a1.25,1.25,0,0,1-.22.95c-1-.11-1.45.39-1.4,1.38,0,.15,0,.33-.16.4a.18.18,0,0,1-.26,0c-.23-.28-.19-.65-.31-1a1.77,1.77,0,0,0-1.53-1.66,4.59,4.59,0,0,0-2,0,14.58,14.58,0,0,0-1.62.35c-.35,0-.65-.07-.59-.53A5,5,0,0,1,81,67.59a5.87,5.87,0,0,1,2.13,0l3.44.23Z"/><path class="cls-104" d="M70.75,94.86c.49-.39.59-1.1,1.16-1.43.3-.18.58-.75.93-.25a.67.67,0,0,1-.3,1.11.83.83,0,0,0-.57.92A3.29,3.29,0,0,1,70.75,94.86Z"/><path class="cls-105" d="M83,95.18c.34-.83.82-1.18,1.62-.51A2.16,2.16,0,0,1,83,95.18Z"/><path class="cls-106" d="M83.63,83.2A1.3,1.3,0,0,1,83.85,82a1.53,1.53,0,0,1,.75.38Z"/><path class="cls-97" d="M74.52,89.32c-.63.38-1,1.11-1.73,1.37l-1.44-6.5a.67.67,0,0,1-.16-.24c-.08-.33-.09-.68-.19-1a1,1,0,0,1,.1-.88l.43-.42c0,.66.49,1,.93,1.3q2.06,1.59,4.14,3.15c.24.18.51.31.53.65a.34.34,0,0,1-.06.37A19.16,19.16,0,0,1,74.52,89.32Z"/><path class="cls-107" d="M70.38,72.37a2.27,2.27,0,0,1-.78-1.93c0-.82-.21-1.43-1.13-1.55-.57-.07-.55-.45-.5-.87l.26-.17,3.5-.26a5.87,5.87,0,0,1,2.09,0A8.34,8.34,0,0,1,76.3,68a.53.53,0,0,1-.4.71c-.67,0-1.2-.48-1.84-.57a4.44,4.44,0,0,0-2,0,1.77,1.77,0,0,0-1.52,2.27,4.13,4.13,0,0,1,.22,1.63A.46.46,0,0,1,70.38,72.37Z"/><path class="cls-108" d="M67.64,69c.76.38.81,1.16.93,1.83a6.48,6.48,0,0,0,.65,2.33c.2.36.14.61-.24.78a3.82,3.82,0,0,1-1.7-3.74A10.32,10.32,0,0,1,67.64,69Z"/><path class="cls-109" d="M71.19,83a1.18,1.18,0,0,1,.17,1A1.18,1.18,0,0,1,70,82.62l.35-.24C70.86,82.28,70.89,82.83,71.19,83Z"/><path class="cls-110" d="M70,82.62A1.53,1.53,0,0,0,71.36,84a1.27,1.27,0,0,1,0,.2c-.39.29-.64,0-.9-.22a2,2,0,0,0-1.28-.79A1.76,1.76,0,0,1,70,82.62Z"/><path class="cls-111" d="M71.19,83c-.47.06-.53-.45-.84-.61a.64.64,0,0,1,.75-.32Z"/><path class="cls-112" d="M75.87,68.62c.25-.12.31-.38.43-.59l2.38,0a.58.58,0,0,0,.53.4c.19.52-.23.67-.53.9a.39.39,0,0,1-.18,0c-.16,0-2,.28-2.13.33-.23-.11-.28-.34-.39-.54A.76.76,0,0,1,75.87,68.62Z"/><path class="cls-113" d="M73.82,67.59H71.73A4.47,4.47,0,0,1,73.82,67.59Z"/><path class="cls-114" d="M83.13,67.59H81A4.51,4.51,0,0,1,83.13,67.59Z"/><path class="cls-115" d="M76.31,69.58c.62-1.11,1.53-.51,2.35-.39a.47.47,0,0,1,.22.31,5,5,0,0,0,2.05,3.34.31.31,0,0,1-.08.26c-1.65-.3-2.25-1.58-2.77-2.94-.36-1-.53-1-1.36-.38C76.49,69.91,76.31,69.92,76.31,69.58Z"/><path class="cls-116" d="M76.31,69.58a.42.42,0,0,0,.41.2,3.59,3.59,0,0,1-3.12,3.38,3.92,3.92,0,0,1-1.67,0,1.48,1.48,0,0,1-1.55-.78l.21-.22c.66,0,1.15.54,1.85.55A3.1,3.1,0,0,0,75.82,70c.06-.34,0-.73.31-1C76.34,69.14,76.3,69.37,76.31,69.58Z"/><path class="cls-117" d="M77.57,77.28c.42,0,.84,0,1.26,0s.56.07.54.41-.26.36-.5.36H76.14c-.27,0-.57-.07-.54-.41s.34-.36.6-.36Z"/><path class="cls-118" d="M80.85,73.1a1.28,1.28,0,0,1,0-.19.59.59,0,0,1,.52-.2,2.81,2.81,0,0,0,3-1.74.61.61,0,0,1,.4-.19H85c.06,1.68-1.44,2.51-2.9,2.52A7.83,7.83,0,0,1,80.85,73.1Z"/><path class="cls-119" d="M71.93,73.15H73.6A2.2,2.2,0,0,1,71.93,73.15Z"/><path class="cls-120" d="M85.27,94a3.73,3.73,0,0,1-1.86-.65A1.64,1.64,0,0,1,85.27,94Z"/><path class="cls-121" d="M74.52,89.32l2.61-2.57.37-.2,2.78,2.77c-.37.68-1.2,1-1.43,1.78a1.92,1.92,0,0,1-2.91-.19Z"/><path class="cls-122" d="M84.62,71c-.66,1.8-2,2.2-3.76,2a4.07,4.07,0,0,1-2.2-3.72c.18-.27.37-.53.55-.79A5.18,5.18,0,0,1,80.85,68,8.67,8.67,0,0,1,83,68c1.14.07,1.5.85,1.64,1.82A2.44,2.44,0,0,1,84.62,71Z"/><path class="cls-114" d="M83,68H80.85A3.09,3.09,0,0,1,83,68Z"/><path class="cls-123" d="M84.62,71l0-1.17c.26.3.1.66.16,1Z"/><path class="cls-124" d="M76.13,69c0,1.55-.28,2.93-2,3.61a3.08,3.08,0,0,1-3.58-.45A18,18,0,0,1,70.18,70c.08-1.29.5-1.8,1.79-2a8.67,8.67,0,0,1,2.16,0l1.74.65Z"/><path class="cls-113" d="M74.13,68H72A3.14,3.14,0,0,1,74.13,68Z"/><path class="cls-125" d="M86.36,60.82c0,2.55-3.93,4.62-8.76,4.62s-8.76-2.07-8.76-4.62,3.92-4.62,8.76-4.62S86.36,58.27,86.36,60.82Z"/><path class="cls-125" d="M73,64.45c-.54,2.32-2.21,3.9-3.73,3.55s-2.3-2.52-1.75-4.84,2.21-3.9,3.72-3.54S73.56,62.14,73,64.45Z"/><path class="cls-125" d="M88.24,63.11c.59,2.3-.16,4.48-1.67,4.87s-3.2-1.17-3.79-3.48.16-4.48,1.67-4.86S87.65,60.81,88.24,63.11Z"/><text class="cls-126" transform="translate(54.74 45.13)">RESUME</text></svg>