<svg id="Layer_1" data-name="Layer 1" xmlns="http://www.w3.org/2000/svg" xmlns:xlink="http://www.w3.org/1999/xlink" viewBox="0 0 190.71 188.75"><defs><style>.cls-1{fill:url(#radial-gradient);}.cls-2{fill:#004259;}.cls-3{fill:#30a1b4;}.cls-4{fill:#002833;}.cls-5{fill:#fdfdfd;}.cls-6{fill:#2e9db0;}.cls-7{fill:#f0f3f4;}.cls-8{fill:#81cfd6;}.cls-9{fill:#04445b;}.cls-10{fill:#b2b2b2;}.cls-11{fill:#a5120d;}.cls-12{fill:#dc1b15;}.cls-13{fill:#d4302a;}.cls-14{fill:#f0f0f0;}.cls-15{fill:#d4312b;}.cls-16{fill:#1b7b95;}.cls-17{fill:#fcfcfc;}.cls-18{fill:#fd5f5f;}</style><radialGradient id="radial-gradient" cx="96.39" cy="94.32" r="94.32" gradientTransform="translate(94.93 -40.53) rotate(45)" gradientUnits="userSpaceOnUse"><stop offset="0" stop-color="#fff"/><stop offset="1" stop-color="#e38100"/></radialGradient></defs><title>Artboard 13</title><circle class="cls-1" cx="96.39" cy="94.32" r="94.32" transform="translate(-38.46 95.79) rotate(-45)"/><path class="cls-2" d="M148.84,120l5.82-1.45q0,12.81,0,25.64a5.9,5.9,0,0,1-6.31,6.3H109.18a2.89,2.89,0,0,1-2.36.76q-10.89,0-21.79,0a2.87,2.87,0,0,1-2.36-.76q-19.44,0-38.9,0c-4.25,0-6.59-2.35-6.59-6.56V76.58c0-4.65,2.22-6.88,6.83-6.88l62.2,0c-.5,2-1,3.92-1.49,5.88-.85,1-2,.75-3.09.75q-16.51,0-33,0c-7.28,0-14.56,0-21.84,0-2.73,0-2.92.19-2.92,2.91q0,27.16,0,54.31c0,2.72.17,2.88,2.95,2.88H145c2.87,0,3-.17,3-3,0-3.67,0-7.34,0-11C148,121.58,147.9,120.6,148.84,120Z"/><path class="cls-3" d="M130.66,39.23c-1.07.2-2.24-.42-3.18.82s-1.33,2.28-.62,3.67a7.09,7.09,0,0,1,.36,1,4,4,0,0,1-3.36,5.48c-1.65.23-2.36-1.07-3.28-2s-2-2.09-3.77-1.53a2.63,2.63,0,0,0-2,1.63c-.17.45-.42.88-.63,1.32a4.06,4.06,0,0,1-6.32,1.56,2.24,2.24,0,0,1-.93-1.9c0-.92,0-1.83,0-2.75a3.12,3.12,0,0,0-4.27-3,10.22,10.22,0,0,0-1.21.43c-3,1.53-3.95.16-5.39-2.71-.68-1.38,0-2.58,1.27-3.46,1.56-1.11,2.79-2.34,2-4.57-.26-.67-.43-1.22-1.11-1.51-.51-.22-1-.49-1.48-.73-2.84-1.39-3.44-3.39-1.84-6.16a2.33,2.33,0,0,1,2.46-1.23,18.74,18.74,0,0,0,2.37.15,3.16,3.16,0,0,0,3-4.13,10.26,10.26,0,0,0-.37-1.23c-1.41-3.06-.35-4.23,3.08-5.72a1.92,1.92,0,0,1,2.16.58c.63.59,1.22,1.2,1.82,1.82,2,2.07,4.13,1.75,5.43-.84l.33-.66c1.41-2.84,3.36-3.44,6.17-1.85,1.67.95,1.63,2.61,1.23,4.06-.55,2,.5,2.95,2,3.75,1.15.62,2.16-.11,3.12-.51,2.92-1.22,3.93-.52,5.42,2.45a2.61,2.61,0,0,1-.68,3.46c-.61.51-1.18,1.06-1.77,1.59a2.93,2.93,0,0,0,.53,4.6c.37.21.76.38,1.15.57,3.21,1.59,3.66,2.91,2.19,6.23C133.68,39.76,132,39,130.66,39.23Z"/><path class="cls-4" d="M82.67,150.49h26.51v14.66c-.52.78-1.33.77-2.12.78q-11.13.06-22.26,0c-.79,0-1.61,0-2.12-.78Z"/><path class="cls-2" d="M82.68,165.15h26.5c2.26,0,4.52,0,6.78,0,1,0,1.92.26,2,1.41s-.91,1.54-2,1.54q-20,0-39.94,0c-1.1,0-2-.26-2-1.54s.93-1.43,2-1.42C78.16,165.17,80.42,165.15,82.68,165.15Z"/><path class="cls-5" d="M148.84,120c0,5.26-.07,10.52,0,15.78,0,1.2-.32,1.51-1.51,1.51q-51.48,0-102.95,0c-1,0-1.33-.26-1.33-1.3q0-29.55,0-59.1c0-1,.28-1.32,1.32-1.32q30.18.06,60.37,0a1.88,1.88,0,0,0,1.54,2c1.44.5,2.83,1.14,4.28,1.6a1.32,1.32,0,0,1,1.08,1.57c-.1,3.56-.07,3.56-3.3,4.78-4,1.49-4,1.49-2.83,5.63.36,1.36.74,2.71,1.11,4.06a1.91,1.91,0,0,0,2.47,1.56c.78-.14,1.57-.25,2.35-.38,3.27-.58,3.21-.55,5,2.12a1.69,1.69,0,0,1-.18,2.51c-1,1-1.79,2.16-2.7,3.24a1.77,1.77,0,0,0,.09,2.74c1.62,1.57,3.22,3.17,4.86,4.74a2,2,0,0,0,2.94,0c1.08-.91,2.24-1.72,3.25-2.69a1.64,1.64,0,0,1,2.51-.16,7.35,7.35,0,0,0,1.61.87,1.17,1.17,0,0,1,.79,1.56c-.33,1.49-.47,3-.76,4.52a1.87,1.87,0,0,0,1.48,2.49c2.13.54,4.27,1.06,6.4,1.59a2.1,2.1,0,0,0,2.82-1.57c.45-1.33,1.06-2.61,1.48-3.94a1.58,1.58,0,0,1,1.83-1.29c2.85,0,2.8,0,3.9,2.67C147.27,117.28,147.52,118.92,148.84,120Z"/><path class="cls-6" d="M96.37,146.5a2.92,2.92,0,0,1-2.94-2.89,3.13,3.13,0,0,1,3-2.93,2.91,2.91,0,0,1,2.86,3A2.77,2.77,0,0,1,96.37,146.5Z"/><path class="cls-7" d="M95.9,73.37c-.41-.07-.69-.27-.68-.7a.68.68,0,0,1,.66-.71.71.71,0,1,1,0,1.41Z"/><path class="cls-8" d="M124.24,31.69a9.34,9.34,0,0,1-9.78,9.41,9.52,9.52,0,0,1-9.55-9.74,9.83,9.83,0,0,1,9.6-9.64A9.6,9.6,0,0,1,124.24,31.69Z"/><path class="cls-9" d="M96.74,145.37c-1.48,0-2.11-.63-2.14-1.65a1.69,1.69,0,0,1,1.79-1.88,1.66,1.66,0,0,1,1.75,1.89A1.52,1.52,0,0,1,96.74,145.37Z"/><path class="cls-10" d="M122.36,89.07q-.78,6.15-1.54,12.29c-.45,3.63-.85,7.26-1.29,10.89-.38,3.12-.79,6.24-1.16,9.37a1.15,1.15,0,0,1-.69,1l-7.52,4.16-5,2.79-1.22.67c-2.29,1.27-4.6,2.53-6.89,3.81a1.25,1.25,0,0,1-1.39,0q-9.09-5-18.2-10a10,10,0,0,0-1.61-.86c-1.28-.41-1.44-1.38-1.56-2.51-.41-3.7-.9-7.39-1.35-11.09S72,102.33,71.61,98.7c-.37-3-.72-6.11-1.14-9.16-.09-.66,0-1,.66-1.2,6.66-2.31,13.32-4.65,20-7,1.51-.53,3-1.07,4.52-1.59.28-.1.58-.16.81-.22l2.37.83,5.32,1.82,6.07,2.07,10.47,3.58c.41.14.82.32,1.24.44S122.41,88.68,122.36,89.07Z"/><path class="cls-11" d="M96.29,82.48l14.56,4.88c2.73.92,5.45,1.87,8.18,2.77.6.2.79.48.71,1.09q-1.08,8.32-2.12,16.66c-.51,4-1,8.07-1.53,12.11a1,1,0,0,1-.5.92l-19.1,10.46c-.55-.13-.48-.6-.48-1,0-6.15-.06-12.31,0-18.46a1,1,0,0,1,.13-.33,1.39,1.39,0,0,1,1.14-.3c1.8,0,3.61,0,5.41,0a1.66,1.66,0,0,1,1.75,1.22c.8,2,1.73,3.92,2.53,5.9a1.5,1.5,0,0,0,1.63,1.06c1.25,0,2.5,0,3.88,0-5.44-11.73-11-23.29-16.38-34.94a1.32,1.32,0,0,1-.08-.33A2.24,2.24,0,0,1,96.29,82.48Z"/><path class="cls-12" d="M96.29,82.48l0,1.8a3,3,0,0,1-.37,1.34q-4.52,10-9,19.95c-1.93,4.3-3.91,8.58-5.81,12.89-.42,1-.41,1,.63,1s2,0,3,0a1.73,1.73,0,0,0,1.85-1.26c.7-1.87,1.47-3.72,2.22-5.58.19-.47.36-1,1-1.1,1.83-.09,3.66,0,5.49,0,.6,0,1,.12,1,.91,0,6.2,0,12.41,0,18.61a.62.62,0,0,1-.1.38l-11.08-6c-2.5-1.37-5-2.77-7.48-4.12a1.43,1.43,0,0,1-.83-1.25c-.77-6.78-1.58-13.55-2.36-20.32-.33-2.83-.6-5.66-1-8.49-.11-.83.47-.8.88-1q7.58-2.7,15.15-5.37C91.68,84.05,93.93,83.11,96.29,82.48Z"/><path class="cls-13" d="M96.08,131.39c0-6.19,0-12.39,0-18.59,0-.78-.18-1.08-1-1-1.9.06-3.8,0-5.69,0,0-.5.42-.49.72-.5,1.82-.07,3.64-.07,5.47,0a.82.82,0,0,1,.7.33v18.82c0,.32-.1.68.2,1C96.36,131.55,96.23,131.58,96.08,131.39Z"/><path class="cls-14" d="M96.29,111.6l-6.38,0c-.19,0-.42-.07-.51.19-1,2.32-1.92,4.63-2.84,7-.24.62-.51.93-1.22.91-1.66,0-3.31,0-5,0-.08-.27.12-.49.22-.73Q88.34,101.7,96.1,84.52a1.25,1.25,0,0,1,.16-.24.55.55,0,0,0,0,.17,3.46,3.46,0,0,1,.3,1.38q.06,4.53,0,9.06a2.74,2.74,0,0,1-.12.81c-.11.27-.18.55-.29.82-1.21,2.91-2.47,5.8-3.68,8.71a1.92,1.92,0,0,0-.29,1.15c.93.44,1.9.11,2.84.21.48,0,1-.1,1.38.37a8.68,8.68,0,0,1-.15,4.58Z"/><path class="cls-10" d="M96.28,111.54c0-1.54,0-3.09,0-4.64a.45.45,0,0,1,.23-.2,22,22,0,0,1,3.44-.09c1.28,0,1.27,0,.77-1.14-1.38-3.06-2.93-6-4.33-9.07a2.42,2.42,0,0,0-.23-.52,3.56,3.56,0,0,0,.14-1.3V84.45c.91,1.88,1.84,3.75,2.74,5.65l13.53,28.72c.13.27.23.56.37.9-1.81,0-3.53,0-5.25,0-.53,0-.57-.42-.71-.74-1-2.2-1.94-4.4-2.86-6.63a1.08,1.08,0,0,0-1.2-.78C100.7,111.59,98.49,111.56,96.28,111.54Z"/><path class="cls-12" d="M91.77,106.42l4.17-9.93c.48.15.42.58.42.93,0,2.77,0,5.55,0,8.32,0,.77-.28,1.1-1.09,1-1-.06-2,0-2.94,0C92.11,106.75,91.74,106.89,91.77,106.42Z"/><path class="cls-15" d="M91.77,106.42c1.3.53,2.65.15,4,.21.3,0,.33-.29.33-.53,0-3.15,0-6.29,0-9.44,0,0-.07-.11-.1-.17l.21-.61c.12,0,.29,0,.3.19.33,3.45.09,6.91.14,10.37a.73.73,0,0,1-.11.38l-.21.08c-1.35,0-2.7,0-4,0C92,106.85,91.42,107.07,91.77,106.42Z"/><path class="cls-11" d="M96.48,106.82a1.36,1.36,0,0,1-.19-.77V96.63a.71.71,0,0,1,.16-.56l5.25,10.75Z"/><path class="cls-16" d="M106.21,69.72c1.1-2.92,1.1-2.92,4.27-2.34.42.07.85.1,1.27.16,2.9.45,4.24-.37,5.12-3,.2-.6-.11-.91-.42-1.28-1-1.23-2-2.49-3-3.69a1.64,1.64,0,0,1,.1-2.56c1.67-1.63,3.32-3.26,5-4.88a1.82,1.82,0,0,1,2.76-.08c1,.84,2,1.6,3,2.48s1.78,1,3.17.39c2.11-.93,2.3-2.16,1.91-4.12-1.08-5.29-1.19-4.64,3.92-6,.94-.25,1.89-.48,2.84-.72,2.27-.56,2.66-.34,3.54,1.92a12.16,12.16,0,0,1,.78,2.05c.42,2.23,1.75,2.9,3.9,2.68,1-.1,1.58-.3,1.91-1.27.43-1.27,1-2.5,1.45-3.76s1.3-1.94,2.81-1.46c2,.64,4.11,1.15,6.17,1.73a2,2,0,0,1,1.6,2.62c-.21,1-.32,1.93-.49,2.89-.48,2.71-.16,3.23,2.38,4.4.76.36,1.14,0,1.6-.41,1.08-.9,2.15-1.81,3.24-2.71a2.09,2.09,0,0,1,3.22.14c1.47,1.56,3,3.08,4.49,4.59a2.06,2.06,0,0,1,.19,3.09,38.18,38.18,0,0,1-2.8,3.39c-1.38,1.34.05,2.17.4,3.2s1,1.11,2,.88c1.42-.32,2.89-.44,4.33-.68A1.93,1.93,0,0,1,179.27,69c.55,2.13,1.08,4.26,1.68,6.38a2,2,0,0,1-1.41,2.75,36.48,36.48,0,0,1-4.13,1.51c-1.57.41-1.16,1.57-1.24,2.61s0,1.74,1.21,2.08c1.41.4,2.75,1,4.13,1.52a2,2,0,0,1,1.43,2.71c-.58,2.06-1.14,4.12-1.62,6.2a2.06,2.06,0,0,1-2.67,1.79c-1.38-.22-2.78-.41-4.15-.7-1.19-.26-1.79.25-2.25,1.28s-1.37,1.74-.19,2.89a38.28,38.28,0,0,1,2.81,3.39,1.93,1.93,0,0,1-.14,2.92c-1.49,1.53-3,3.07-4.45,4.63-1.05,1.11-2.09,1.36-3.31.21-.85-.79-1.89-1.39-2.68-2.22-1.11-1.18-2-1-3.34-.22s-1.78,1.49-1.33,2.89a9.68,9.68,0,0,1,.32,1.62c.54,4,.54,4-3.28,5.34a7.23,7.23,0,0,1-5.82,1.86c-2.1-1-2.3-3.19-3.08-5-.46-1.06-1-1.74-2.28-1.66a2,2,0,0,0-2,1.33c-.43,1.14-.82,2.3-1.35,3.41-.85,1.77-1.92,2.39-3.82,2.09a37.94,37.94,0,0,1-6-1.5,2.9,2.9,0,0,1-2.16-3.38c.1-1.28.41-2.53.53-3.81a1.84,1.84,0,0,0-1.28-2c-.84-.4-1.6-.85-2.51,0a24.31,24.31,0,0,1-2.89,2.25c-1.7,1.1-3,1.05-4.51-.27s-2.91-2.79-4.28-4.27a2.72,2.72,0,0,1-.26-3.68,25.69,25.69,0,0,1,2.38-3,1.66,1.66,0,0,0,.22-2.3c-.57-.82-.86-1.93-2.26-1.75-1.15.14-2.29.37-3.44.52-2.34.3-3.3-.27-4-2.45a46.62,46.62,0,0,1-1.44-5.49c-.4-1.91,0-2.82,1.78-3.74a26.8,26.8,0,0,1,3.55-1.47c1.08-.38,1.29-1.14,1.29-2.15s0-1.93-1.23-2.37-2.29-.85-3.41-1.34-2.23-1.31-2.15-2.86C104.61,73.48,104.65,71.34,106.21,69.72Z"/><path class="cls-17" d="M143,64.18a18.35,18.35,0,1,1-18.38,18.2A18.34,18.34,0,0,1,143,64.18Z"/><path class="cls-18" d="M143,67.85A14.68,14.68,0,1,1,128.23,82.7,14.71,14.71,0,0,1,143,67.85Z"/></svg>