<svg id="Layer_1" data-name="Layer 1" xmlns="http://www.w3.org/2000/svg" xmlns:xlink="http://www.w3.org/1999/xlink" viewBox="0 0 186.07 188.75"><defs><style>.cls-1{fill:url(#radial-gradient);}.cls-2{fill:url(#linear-gradient);}.cls-3{fill:#5c8ff5;}.cls-4{fill:#335fb8;}.cls-5{fill:#6a96ef;}.cls-6{fill:#3667c9;}.cls-7{fill:#3f6ecc;}.cls-8{fill:#5e8deb;}.cls-9{fill:#6897f6;}.cls-10{fill:#4071d3;}.cls-11{fill:#4c7cdd;}.cls-12{fill:#5384e6;}.cls-13{fill:#fefefe;}.cls-14{fill:#6899fb;}.cls-15{fill:#006cfe;}.cls-16{fill:#0086fe;}.cls-17{fill:#007ffe;}.cls-18{fill:#0179fe;}.cls-19{fill:#0074fe;}.cls-20{fill:#5285eb;}.cls-21{fill:#376ad0;}.cls-22{fill:#2558bd;}.cls-23{fill:#4376e0;}.cls-24{fill:#275abf;}.cls-25{fill:#1a4db3;}.cls-26{fill:url(#linear-gradient-2);}.cls-27{fill:#2a5bbc;}.cls-28{fill:#1846a4;}.cls-29{fill:#1d50b5;}.cls-30{fill:#1447ad;}.cls-31{fill:#0c3fa4;}.cls-32{fill:#05379d;}.cls-33{fill:#3b68c3;}.cls-34{fill:#4167b1;}.cls-35{fill:#3362bf;}.cls-36{fill:#3d70d5;}.cls-37{fill:#3666c4;}.cls-38{fill:url(#linear-gradient-3);}.cls-39{fill:#3d6dce;}.cls-40{fill:#6e9efe;}.cls-41{fill:#e1e1fe;}.cls-42{fill:url(#linear-gradient-4);}.cls-43{fill:#f2f2fe;}.cls-44{fill:#4f82e6;}.cls-45{fill:#4a7adb;}.cls-46{fill:#eaeafe;}.cls-47{fill:#0063fe;}.cls-48{fill:#005cfe;}.cls-49{fill:#fe9933;}.cls-50{fill:#d1d1fe;}.cls-51{fill:#3662c1;}.cls-52{fill:#335eb5;}.cls-53{fill:#4a7ada;}.cls-54{fill:#d9dcfc;}.cls-55{fill:#3a6ed6;}.cls-56{fill:#b1bfee;}.cls-57{fill:#4d80e6;}.cls-58{fill:#5f91f7;}.cls-59{fill:#5689ef;}.cls-60{fill:#7f7f80;}.cls-61{fill:#759ff5;}.cls-62{fill:#5a8cf2;}.cls-63{fill:#5487ec;}.cls-64{fill:#628eeb;}.cls-65{fill:#e5e2f8;}.cls-66{fill:#d8d4f6;}.cls-67{fill:#e2d8e9;}.cls-68{fill:#d7d7fe;}.cls-69{fill:#eeecf4;}.cls-70{fill:url(#linear-gradient-5);}.cls-71{fill:#3163c7;}.cls-72{fill:#033599;}.cls-73{fill:url(#linear-gradient-6);}</style><radialGradient id="radial-gradient" cx="91.75" cy="94.32" r="94.32" gradientTransform="translate(93.57 -37.26) rotate(45)" gradientUnits="userSpaceOnUse"><stop offset="0" stop-color="#fff"/><stop offset="1" stop-color="#e38100"/></radialGradient><linearGradient id="linear-gradient" x1="100.35" y1="112.24" x2="154.19" y2="112.24" gradientUnits="userSpaceOnUse"><stop offset="0" stop-color="#fff"/><stop offset="0.1" stop-color="#f6f8ff"/><stop offset="0.46" stop-color="#d8e0ff"/><stop offset="0.78" stop-color="#c6d1ff"/><stop offset="1" stop-color="#bfccff"/></linearGradient><linearGradient id="linear-gradient-2" x1="55.75" y1="49.74" x2="151.43" y2="49.74" gradientUnits="userSpaceOnUse"><stop offset="0" stop-color="#154cff"/><stop offset="0.06" stop-color="#1345f5"/><stop offset="0.35" stop-color="#0b27cb"/><stop offset="0.62" stop-color="#0512ad"/><stop offset="0.84" stop-color="#01059b"/><stop offset="1" stop-color="#000094"/></linearGradient><linearGradient id="linear-gradient-3" x1="51.46" y1="86.75" x2="155.1" y2="86.75" gradientUnits="userSpaceOnUse"><stop offset="0" stop-color="#1579ff"/><stop offset="0.15" stop-color="#1474fa"/><stop offset="0.35" stop-color="#1164ec"/><stop offset="0.56" stop-color="#0d4ad6"/><stop offset="0.79" stop-color="#0727b6"/><stop offset="1" stop-color="#000094"/></linearGradient><linearGradient id="linear-gradient-4" x1="60.45" y1="121.73" x2="150.29" y2="69.87" xlink:href="#linear-gradient"/><linearGradient id="linear-gradient-5" x1="100.06" y1="112.2" x2="153.9" y2="112.2" xlink:href="#linear-gradient"/><linearGradient id="linear-gradient-6" x1="29.32" y1="113.78" x2="83.16" y2="113.78" xlink:href="#linear-gradient"/></defs><title>Artboard 12</title><circle class="cls-1" cx="91.75" cy="94.32" r="94.32" transform="translate(-39.82 92.51) rotate(-45)"/><path class="cls-2" d="M154.18,105.94V92.78l-.15-6-.39,0-.4,0-.91-.06-2.66.08-3.49.69-1.93-.18-1.52.12-4.4.09-2.63,0-2.62-.23-7.9.08-2.53.11-7,.81c-.06,1.29-.13,2.58-.18,3.87-.3,8.42-.29,8.42,8,8.42l1,5.17c0,.62-.09,1.24-.14,1.85l-3.53,0-6.91,0a.81.81,0,0,0-.14.75l-.67,13.26,1.6,0h5.25l5.25,0c0-.83,0-1.67.08-2.51,0-1.5,0-3,0-4.5l4.36-.12h0l.51-.81c-.17.27-.34.54-.5.81l1,.09,1,.1.37,0,.35-.12,3.51,0a19.64,19.64,0,0,0,3.06.13c2.41-.23,3.43.6,3.25,3.18-.26,3.63,0,7.3-.38,10.92a3.63,3.63,0,0,1-2.45,2.48,101,101,0,0,1-11.8,0c-.81,0-1.57-1.15-2.36-1.76,0-2,.07-4.11.11-6.16-.57,1.17-1.15,2.33-1.72,3.5l-2.65,0h-7l-4.37,0-.73-1.09c-.06-.52-.13-1-.19-1.55q.32-18,.64-35.9c-1.75,0-3.51.16-5.25,0-2.69-.23-3.53.9-3.5,3.53.17,13.71.2,27.41.28,41.12l-.06,4.36,1.84.17-.08-.28,1.81.29,3.43-.3c0-.24.05-.47.07-.71l2.63-.07H112l2.66-.12h2.57l.95.23,1.7-.14,3.52.25.88,0,9.64-.11a.7.7,0,0,1,.75-.08l10.64-.62c8.61-.61,8.61-.61,8.65-9.44,0-1.31.12-2.61.19-3.93v-3.5c0-2.34,0-4.67,0-7Q154.18,109,154.18,105.94ZM142,98.15c-.26,3.63,0,7.3-.38,10.92a3.63,3.63,0,0,1-2.45,2.48,101,101,0,0,1-11.8,0c-.81,0-1.57-1.15-2.36-1.76,0-2,.07-4.11.11-6.16,0-.59,0-1.18,0-1.77,0-.83,0-1.67.08-2.51,0-4.34,3.7-3.62,6.25-4.43l.37,0,.35-.12,3.51,0a19.64,19.64,0,0,0,3.06.13C141.18,94.74,142.2,95.57,142,98.15Z"/><path class="cls-3" d="M95.31,39.41l-1.8,0h0Z"/><path class="cls-3" d="M99.74,39.36H97.11l-1.8,0,1.8,0Z"/><path class="cls-4" d="M156,82.14c-.05.32-.11.64-.16,1q-.44,0-.87,0,0-10.45-.1-20.93h0c0-2.32,0-4.65,0-7s0-4.64,0-7h0v0l.06-.08.17-.21a19.26,19.26,0,0,1,.78,3.75C156,61.83,156,72,156,82.14Z"/><path class="cls-5" d="M120.78,35l-1.75.77h-5.26l-11.36.09L96,35.66Z"/><path class="cls-6" d="M57.6,138.42v0Z"/><path class="cls-7" d="M102.41,137.67l-5.29,4.2-.43.06-.43-.05-.18-1.69c.08-.61.17-1.21.24-1.81l3.28-2.61,1,1.73Z"/><path class="cls-8" d="M54.2,90.18c-.05.93-.11,1.85-.16,2.78-.23-2.39-.45-4.77-.68-7.16Z"/><path class="cls-9" d="M53.32,79.6l-.23.09a4.44,4.44,0,0,1-.62-.1c0-2.33.05-4.66.07-7h.7Q53.29,76.1,53.32,79.6Z"/><path class="cls-10" d="M56.88,127.92c-.07.62-.13,1.23-.19,1.85-.22-2.37-.45-4.75-.67-7.12C56.31,124.41,56.59,126.16,56.88,127.92Z"/><path class="cls-11" d="M56,114.76l-.24,2-.63-6.39Z"/><path class="cls-12" d="M55.1,103.33c-.07.64-.13,1.28-.19,1.92q-.3-3.14-.61-6.27C54.57,100.43,54.83,101.88,55.1,103.33Z"/><path class="cls-13" d="M151.64,63.85q-.15,9.62-.31,19.23L147.08,83c0-3.74,0-7.49,0-11.23,0-1.76,0-3.51,0-5.27.43-2.77-.73-3.93-3.5-3.46l-7.89.83-4.39,0-5.26.84h-7a13.47,13.47,0,0,0-3.05.05c-3.41.85-7.62.91-10,3-4.41,3.88-7.77,9-11.5,13.59-9,11.17-18.06,22.31-26.9,33.61-1.47,1.88-2,4.5-3,6.78.29,2.34.59,4.68.88,7v1.75H78.68l6.16-.85.86,0,8.81-.85,1.56-.05c-.57,1.16-1.14,2.31-1.7,3.46l-4.33.26-11.38.92-5.46.57-2.41.14-4.41.1-.49.07-.38,0h-1l-.25,0h0l-.2,0-.21,0-.19-.05-.13,0-.24-.09a3.29,3.29,0,0,1-.68-.4l-.25-.23a2.72,2.72,0,0,1-.47-.63.54.54,0,0,1-.07-.13,4.4,4.4,0,0,1-.43-1.34q0-.23-.06-.48a4.41,4.41,0,0,1,0-.52q-.13-2.93-.25-5.86L60.05,113c-.2-1.55-.39-3.09-.59-4.64,0-.8-.09-1.6-.14-2.39s-.07-1.78-.1-2.66L58.53,98c-.05-.85-.09-1.7-.14-2.55,0-.59,0-1.19,0-1.78-.22-1.81-.45-3.61-.68-5.42-.07-1.71-.15-3.41-.23-5.12h0l-.9-12.23c.11-1.47.22-2.93.32-4.39l1.63-.15,7.93-.72,11.4-.79,12.28-.93,6.16-.27,6.16-.63,5.22-.18,6.27-.66L117.3,62l2.66-.08,6.24-.64.38.06.36-.14,10.75-.77,12.24-.89Z"/><path class="cls-14" d="M56.88,66.48c-.1,1.46-.21,2.92-.32,4.39l-.69,0C56.21,69.4,56.54,67.94,56.88,66.48Z"/><path class="cls-15" d="M104.13,39.37h0l-2.65-.2Z"/><path class="cls-16" d="M93.51,39.45Z"/><path class="cls-17" d="M95.31,39.41l-1.8,0h0Z"/><path class="cls-18" d="M97.11,39.36h0l-1.8,0Z"/><path class="cls-19" d="M99.74,39.36h0Z"/><path class="cls-20" d="M110.27,39.37h-6.14l-2.65-.2,2.65.2h6.14Z"/><path class="cls-21" d="M155.86,83.11,154,86.82l-.39,0-.4,0-.91-.06-2.66.08-4.3-.29c.59-1.09,1.18-2.18,1.78-3.26l-.07-.35,4.25.11,3.66,0Q155.43,83.13,155.86,83.11Z"/><path class="cls-22" d="M158.54,90.13c0,2.05,0,4.1,0,6.15l-4.34,3.52v-7Z"/><path class="cls-23" d="M125.18,38.4v.74l-.9,0Z"/><path class="cls-24" d="M154.9,62.18h0c0-2.32,0-4.65,0-7C154.88,57.53,154.89,59.86,154.9,62.18Z"/><path class="cls-25" d="M155,83.11l-3.66,0q.15-9.61.31-19.23l2.62-1.35.63-.32h0Z"/><path class="cls-26" d="M151.43,49.82l-.15,5.24-5.05,1-2.62-.19-3.51.08-2.61.05-1.78.82-7,.09-2.61-.11h0l-1.82.18-1.69-.16-2.63.06c0,.27,0,.54,0,.81h0l-6.13,0-4.38-.08-3.51.05-3.51,0-3.45,0a7.86,7.86,0,0,0-.11.83l-5.25-.1,0,.19-3.52-.15-.92.2-2.59-.14L84,58.61l-3.51.83-1.76-.17L76,59.54l.08-.23-2.68,0-1.81.24c-.27-.06-.54-.13-.82-.18H68.15l-3.51.08-.9.73L62,60.35l-3.47-.17c-.83-.34-2.39-.65-2.4-1-.16-5.57-1.41-11.3,1.69-16.5a2,2,0,0,1,.45-.51,14.15,14.15,0,0,1,1.65-1.06l.22-.15L62,40.13l6.25-.65H85.7l1.75-.24,2.55.22h3.51l1.8,0,1.8,0h2.63l1.74-.19,2.65.2h6.14l1.74-.15,1.76.14h2.63l.88-.19,1.76.2h5.3l-.06-.21.9,0,2.63.17h10.53l4.34,0q.06.39.15.78l3.59,1.73,1.47.32h0c.09.48.19,1,.28,1.42l1.49,1Z"/><path class="cls-27" d="M119.08,137.58l-2.61,3.35-9.68.86-6.19.14,3.54-4.25,3.43-.3,10.3,0,.61.11.6.12Z"/><path class="cls-28" d="M134,136.67l-2.63,3.49-3.51.8-9.57.18-1.77-.21,2.61-3.35h0l4.34-.06.89-.73Z"/><path class="cls-29" d="M158.52,96.28v7l-4.34,2.64V99.8Z"/><path class="cls-30" d="M158.52,103.3v6.14l-4.33,2.65q0-3.07,0-6.15Z"/><path class="cls-31" d="M158.52,109.44v6.15l-4.34,3.51c0-2.34,0-4.67,0-7Z"/><path class="cls-32" d="M158.52,120l-4.34,2.62v-3.5l4.34-3.51Z"/><path class="cls-33" d="M104.14,137.68l-3.54,4.25-3.48-.06,5.29-4.2-.08-.28Z"/><path class="cls-34" d="M127.81,141l3.51-.8,12.32.06Z"/><path class="cls-33" d="M116.47,140.93l1.78.21-11.46.65Z"/><path class="cls-35" d="M57.6,138.42v0Z"/><path class="cls-36" d="M99.6,135.77l-3.28,2.61-7.93-1a2.23,2.23,0,0,1,0-.68h0a34.61,34.61,0,0,0,5.2-.13c.93-.14,1.75-1,2.63-1.49l-1.8-2.87c.56-1.15,1.13-2.3,1.7-3.46l.33.07,3.18-1.72Q99.58,131.42,99.6,135.77Z"/><path class="cls-37" d="M80.51,137.6l-12.33.75,1.76-.85Z"/><path class="cls-37" d="M63.88,138.47l-4.5.3h0v-.26Z"/><path class="cls-6" d="M59.38,138.5v.26h0l-1.78-.35Z"/><path class="cls-38" d="M154.87,48.22l.06-.08.17-.21-.9-3.46c-.27-.61-.55-1.21-.82-1.82l0,0-1.66-2.57-5.38-3.73-2.44-.67L133.08,35h-12.3l-1.75.77h-5.26l-11.36.09L96,35.66l-6.78.1c-8.41,0-16.82.17-25.22,0-6-.11-10.46,1.88-12.52,7.87,0,5.51.07,11,.12,16.52h0l.63,8.95c.12,1.16.22,2.31.33,3.47h.7q0,3.49.08,7l-.23.09c.1,2,.18,4.07.27,6.11l.84,4.38c-.05.93-.11,1.85-.16,2.78.06,1.69.13,3.38.19,5.07,0,.32.05.63.07,1,.27,1.45.53,2.9.8,4.35-.07.64-.13,1.28-.19,1.92l.18,3.31,0,1.8.87,4.4-.24,2,.24,5,0,.91c.29,1.76.57,3.51.86,5.27-.07.62-.13,1.23-.19,1.85l.09,8.56.41.13.41,0v0h0l1.78.08,4.5,0,4.3-.12,1.76-.85,10.57.1c2.63-.07,5.25-.16,7.88-.24a2.23,2.23,0,0,1,0-.68h0a34.61,34.61,0,0,0,5.2-.13c.93-.14,1.75-1,2.63-1.49l-1.8-2.87-4.33.26-11.38.92-5.46.57-2.41.14-4.41.1-.49.07-4.75.65c0-1.55,0-3.1.09-4.65q-.13-2.93-.25-5.86L60.05,113h-.68l.09-4.63c0-.8-.09-1.6-.14-2.39s-.07-1.78-.1-2.66l-.76-1.72c0-1.2,0-2.4.07-3.6-.05-.85-.09-1.7-.14-2.55,0-.59,0-1.19,0-1.78l-.87-4.33c.06-.36.13-.73.19-1.09-.07-1.71-.15-3.41-.23-5.12h0l-.9-12.23-.69,0c.34-1.45.67-2.91,1-4.37l1.63-.15,7.93-.72,11.4-.79,12.28-.93,6.16-.27,2.63-.74h0l3.53.11,5.22-.18,4.42-.88,1.85.22L117.3,62l2.66-.08,6.24-.64.38.06.36-.14,10.75-.77,12.24-.89,1.71,4.34,2.62-1.35.63-.32h0c0-2.32,0-4.65,0-7s0-4.64,0-7h0ZM54.1,79.28a3.14,3.14,0,0,1,.45-.13A3.14,3.14,0,0,0,54.1,79.28Zm97.18-24.22-5.05,1-2.62-.19-3.51.08-2.61.05-1.78.82-7,.09-2.61-.1-1.82.18-4.37.71h0l-6.13,0-4.38-.08-3.51.05-3.51,0-3.45,0a7.86,7.86,0,0,0-.11.83l-5.25-.1,0,.19-3.52-.15-.92.2-2.59-.14L84,58.61l-3.51.83-1.76-.17L76,59.54l.08-.23-2.68,0-1.82.25h0c-.27-.06-.54-.13-.82-.18H68.15l-3.51.08-.9.73L62,60.35l-3.47-.17c-.83-.34-2.39-.65-2.4-1-.16-5.57-1.41-11.3,1.69-16.5a2,2,0,0,1,.45-.51,14.15,14.15,0,0,1,1.65-1.06l.22-.15L62,40.13l6.25-.65H85.7l1.75-.24,2.55.22h3.51l1.8,0,1.8,0h2.63l1.74-.19,2.65.2h6.14l1.74-.15,1.76.14h2.63l.88-.19,1.76.2h5.3l-.06-.21.9-.76v.74l2.63.17h10.53l4.34,0q.06.39.15.78l3.59,1.73,1.47.32h0c.09.48.19,1,.28,1.42l1.49,1,1.77,5.26Z"/><path class="cls-39" d="M65.89,134.24l-4.75.65c0-1.55,0-3.1.09-4.65a4.41,4.41,0,0,0,0,.52q0,.26.06.48a4.4,4.4,0,0,0,.43,1.34.54.54,0,0,0,.07.13,2.72,2.72,0,0,0,.47.63,2.61,2.61,0,0,0,.25.23,3.29,3.29,0,0,0,.68.4l.24.09.13,0,.19.05.21,0,.2,0h0l.25,0h1Z"/><path class="cls-8" d="M58.37,93.64l-.87-4.33c.06-.36.13-.73.19-1.09C57.92,90,58.15,91.83,58.37,93.64Z"/><path class="cls-11" d="M60.05,113h-.68l.09-4.63C59.66,109.89,59.85,111.43,60.05,113Z"/><path class="cls-12" d="M59.22,103.29l-.76-1.72c0-1.2,0-2.4.07-3.6Z"/><path class="cls-40" d="M109.23,84.71c0,1.25-.09,2.51-.13,3.77-1.75,0-3.51.16-5.25,0-2.69-.23-3.53.9-3.5,3.53.17,13.71.2,27.41.28,41.12l-.06,4.36-1-1.73q0-4.35,0-8.7h0q0-5.25,0-10.5v-3.5c0-1.17,0-2.34,0-3.51h0v-.46s0,0,0,0c0-.68,0-1.35,0-2,0-.1,0-.21,0-.31s0-.39,0-.58,0-.27,0-.4c.42-3-1-3.34-3.36-2.43l.78-18.41h0l5.27-.12Z"/><path class="cls-41" d="M120.78,83.92l-5,.14h0Z"/><path class="cls-42" d="M147.08,83l.07.35-2.68-.07-6.13-.09-4.49.8-5.18-.15c-.29.12-.59.23-.89.33l-1.72-.27H124.3l-.9.28-2.62-.24-5,.13c.19-1.8.39-3.62.58-5.43,0-.83.07-1.67.1-2.51q0-3.51,0-7l-3.71-.76-2.27,0-1.26,16.42-6.85.08-5.27.12h0l-.78,18.41c-.09.58-.18,1.15-.26,1.73,0,1.17,0,2.35,0,3.52s0,2.39,0,3.59l.3-.16c-.09,1.78-.19,3.56-.29,5.33.1.59.19,1.16.29,1.74-.1,1.18-.19,2.35-.29,3.53q.17,3.09.32,6.18l-.33-.07-1.56.05-8.81.85-.86,0-2.65,0H78.68v.87H65.52v-1.75c-.29-2.34-.59-4.68-.88-7,1-2.28,1.49-4.9,3-6.78,8.84-11.3,17.89-22.44,26.9-33.61,3.73-4.63,7.09-9.71,11.5-13.59,2.37-2.09,6.58-2.15,10-3a13.47,13.47,0,0,1,3.05-.05h7l5.26-.84,4.39,0L143.6,63c2.77-.47,3.93.69,3.5,3.46,0,1.76,0,3.51,0,5.27C147.09,75.48,147.09,79.23,147.08,83Z"/><path class="cls-43" d="M72.55,130.52h0Z"/><path class="cls-44" d="M102.44,63l-6.16.63,2.63-.74Z"/><path class="cls-45" d="M113.93,62.15l-6.27.66,4.42-.88Z"/><path class="cls-46" d="M84.84,129.65l-6.16.85v-.87h3.51Z"/><path class="cls-47" d="M107.63,39.36h0Z"/><path class="cls-48" d="M110.27,39.37h0Z"/><path class="cls-49" d="M142,118c-.26,3.63,0,7.3-.38,10.92a3.63,3.63,0,0,1-2.45,2.48,101,101,0,0,1-11.8,0c-.81,0-1.57-1.15-2.36-1.76,0-2,.07-4.11.11-6.16,0-.59,0-1.18,0-1.77,0-.83,0-1.67.08-2.51,0-4.34,3.7-3.62,6.25-4.43l.37,0,.35-.12,3.51,0a19.64,19.64,0,0,0,3.06.13C141.18,114.58,142.2,115.41,142,118Z"/><path class="cls-49" d="M126,104.36c0,.23,0,.46,0,.68h0C125.94,104.82,126,104.59,126,104.36Z"/><path class="cls-50" d="M118.21,136.69l-.95-.22h0Z"/><path class="cls-51" d="M123.43,136.8c0,.24,0,.47,0,.71l-4.34.06-.6-.11-.61-.1h0c.12-.22.24-.44.34-.66l1.7-.14Z"/><path class="cls-52" d="M124.31,136.78l-.89.73c0-.24,0-.47,0-.71Z"/><path class="cls-53" d="M147.15,83.32c-.6,1.08-1.19,2.17-1.78,3.26a1.32,1.32,0,0,1-.78.13L134,86.62c.6-.84,1.19-1.68,1.79-2.51l8.71-.86Z"/><path class="cls-54" d="M149.67,86.87l-3.49.69-1.93-.18a7,7,0,0,1,.34-.67,1.32,1.32,0,0,0,.78-.13Z"/><path class="cls-55" d="M124.24,57l-4.37.71c0-.27,0-.54,0-.81l2.63-.06Z"/><path class="cls-56" d="M118.21,136.69c-.1.22-.22.44-.34.66h0l-10.3,0c0-.24.05-.47.07-.71l2.63-.07H112l2.66-.12h2.57Z"/><path class="cls-57" d="M99.59,116.56q0,5.25,0,10.5l-3.18,1.73q-.15-3.09-.32-6.18c.1-1.18.19-2.35.29-3.53Z"/><path class="cls-58" d="M99.72,105.76c0,.13,0,.27,0,.4s0,.38,0,.58,0,.21,0,.31c0,.67,0,1.34,0,2,0,0,0,0,0,0,0,.15,0,.31,0,.46h0L96.37,112l-.3.16c0-1.2,0-2.4,0-3.59s0-2.35,0-3.52c.08-.58.17-1.15.26-1.73h0C98.72,102.42,100.14,102.74,99.72,105.76Z"/><path class="cls-59" d="M99.6,109.54c0,1.17,0,2.35,0,3.52v3.5l-3.22,2.52c-.1-.58-.19-1.15-.29-1.74.1-1.77.2-3.55.29-5.33l3.23-2.46Z"/><path class="cls-60" d="M125.15,121.73c0,.59,0,1.18,0,1.77-.57,1.17-1.15,2.33-1.72,3.5l-2.65,0h-7l-4.37,0-.73-1.09c-.06-.52-.13-1-.19-1.55q.32-18,.64-35.9c0-1.26.09-2.52.13-3.77l1.26-16.42,2.27,0,3.71.76q0,3.53,0,7c0,.84-.07,1.68-.1,2.51-.19,1.81-.39,3.63-.58,5.43h0c0,.29,0,.59,0,.89h0c0,.83-.06,1.67-.08,2.51l-.06.92c-.06,1.29-.13,2.58-.18,3.87-.3,8.42-.29,8.42,8,8.42.51,6.18.51,6.13-5.58,6.25a22.43,22.43,0,0,0-4,.78.81.81,0,0,0-.14.75l-.67,13.26,1.6,0h5.25Z"/><path class="cls-61" d="M115.78,85h0c0-.3,0-.6,0-.89h0l5-.13,2.62.24Z"/><path class="cls-62" d="M127.78,84.14c-.86,1.11-1.73,2.23-2.6,3.33l-2.53.11-7-.11c0-.84,0-1.68.08-2.51h0l7.62-.79.9-.28h1.76Z"/><path class="cls-63" d="M135.76,84.11c-.6.83-1.19,1.67-1.79,2.51l-.89.77-7.9.08c.87-1.1,1.74-2.22,2.6-3.33.3-.1.6-.21.89-.33l5.18.15Z"/><path class="cls-64" d="M144.47,83.25l-8.71.86L133.85,84l4.49-.8Z"/><path class="cls-65" d="M130.05,113.79c-.17.27-.34.54-.5.81h0Z"/><path class="cls-66" d="M130.05,113.79c-.17.27-.34.54-.5.81h0Z"/><path class="cls-49" d="M138.77,95a19.64,19.64,0,0,1-3.06-.13l-3.51,0-.35.12-.37,0c-2.55.81-6.2.09-6.25,4.43,0,.84,0,1.68-.08,2.51,0,.59,0,1.18,0,1.77,0,2-.07,4.11-.11,6.16.79.61,1.55,1.72,2.36,1.76a101,101,0,0,0,11.8,0,3.63,3.63,0,0,0,2.45-2.48c.35-3.62.12-7.29.38-10.92C142.2,95.57,141.18,94.74,138.77,95ZM125.93,105c0-.22,0-.45,0-.68,0,.23,0,.46,0,.68Z"/><path class="cls-67" d="M131.48,114.79c-2.55.81-6.2.09-6.25,4.43,0-1.5,0-3,0-4.5l4.36-.12,1,.09Z"/><path class="cls-68" d="M117.26,136.46h0Z"/><path class="cls-64" d="M144.59,86.71a7,7,0,0,0-.34.67l-1.52.12-4.4.09-2.63,0-2.62-.23.89-.77Z"/><path class="cls-69" d="M124.44,105.85c0,.62-.09,1.24-.14,1.85l-3.53,0-6.91,0a22.43,22.43,0,0,1,4-.78c6.09-.12,6.09-.07,5.58-6.25Z"/><path class="cls-61" d="M122.65,87.58l-7,.81.06-.92h0Z"/><path class="cls-70" d="M153.89,105.9V92.74l-.15-5.95-.4,0-.39,0-.91-.06-2.66.09-3.49.68L144,87.35l-1.52.11-4.4.1c-.87,0-1.76,0-2.63,0l-2.62-.24-7.9.09-2.53.1-7,.81c-.06,1.29-.13,2.58-.18,3.87-.3,8.42-.29,8.42,8,8.42l1,5.18c-.05.61-.09,1.23-.14,1.85l-3.53,0-6.91,0a.83.83,0,0,0-.14.76q-.33,6.61-.67,13.25l1.6,0h5.25l5.25,0c0-.83,0-1.67.08-2.51,0-1.5,0-3,0-4.5l4.36-.11h0l.51-.81c-.17.27-.34.54-.5.81l1,.1,1,.09.37,0,.35-.12,3.51,0a19.65,19.65,0,0,0,3.06.14c2.41-.24,3.43.59,3.25,3.17-.26,3.63,0,7.31-.38,10.92a3.6,3.6,0,0,1-2.45,2.48,101,101,0,0,1-11.8,0c-.81,0-1.57-1.14-2.36-1.76,0-2.05.07-4.1.11-6.16-.57,1.17-1.15,2.34-1.72,3.5l-2.65,0h-7l-4.37,0c-.24-.36-.49-.72-.73-1.09-.06-.52-.13-1-.19-1.55q.31-18,.64-35.9c-1.75,0-3.51.16-5.25,0-2.69-.23-3.53.9-3.5,3.54.17,13.7.2,27.4.28,41.11l-.06,4.36,1.84.17-.08-.27,1.81.28,3.43-.3c0-.23,0-.47.07-.7l2.63-.07,1.76,0,2.66-.12H117l1,.23,1.7-.14,3.52.25.88,0,9.64-.11a.75.75,0,0,1,.75-.08l10.64-.62c8.61-.61,8.61-.61,8.65-9.43,0-1.32.12-2.62.19-3.93v-3.51q0-3.5,0-7Q153.89,109,153.89,105.9Zm-12.16-7.79c-.26,3.63,0,7.31-.38,10.92a3.6,3.6,0,0,1-2.45,2.48,101,101,0,0,1-11.8,0c-.81,0-1.57-1.14-2.36-1.76,0-2,.07-4.1.11-6.16,0-.58,0-1.18,0-1.77,0-.83,0-1.67.08-2.51,0-4.34,3.7-3.62,6.25-4.43l.37,0,.35-.12,3.51,0a19.65,19.65,0,0,0,3.06.14C140.89,94.7,141.91,95.53,141.73,98.11Z"/><path class="cls-71" d="M158.36,83.09h0q-.06,3.5-.11,7l-4.36,2.65-.15-5.95,1.83-3.72.16-1,2.22.27A1.2,1.2,0,0,0,158.36,83.09Z"/><path class="cls-21" d="M155.57,83.07l-1.83,3.72-.39,0-.4,0-.91-.06-2.66.09-4.3-.3,1.78-3.26-.07-.34L151,83l3.66,0Z"/><path class="cls-22" d="M158.25,90.09q0,3.07,0,6.15l-4.35,3.52v-7Z"/><path class="cls-72" d="M155.48,139.9c-4,0-8.08.18-12.12.28L131,140.12l2.63-3.49a.75.75,0,0,1,.75-.08l10.64-.62c8.61-.61,8.61-.61,8.66-9.43,0-1.32.12-2.62.18-3.93l4.35-2.63c.06,5.63.06,11.26.23,16.89C158.53,139.06,157.76,139.92,155.48,139.9Z"/><path class="cls-27" d="M118.8,137.54l-2.62,3.36-9.68.86-6.19.13,3.54-4.25,3.43-.3,10.3,0,.61.12.6.11Z"/><path class="cls-28" d="M133.66,136.63,131,140.12l-3.51.81-9.56.17-1.78-.2,2.61-3.36h0l4.33-.05.89-.74Z"/><path class="cls-29" d="M158.24,96.24v7l-4.35,2.64V99.76Z"/><path class="cls-30" d="M158.24,103.26q0,3.08,0,6.15l-4.33,2.64q0-3.08,0-6.15Z"/><path class="cls-31" d="M158.23,109.41v6.14l-4.34,3.51q0-3.5,0-7Z"/><path class="cls-32" d="M158.24,119.94l-4.35,2.63v-3.51l4.34-3.51C158.23,117,158.23,118.48,158.24,119.94Z"/><path class="cls-33" d="M103.85,137.64l-3.54,4.25-3.48-.06,5.29-4.2-.08-.27Z"/><path class="cls-34" d="M127.52,140.93l3.51-.81,12.32.07Z"/><path class="cls-33" d="M116.18,140.89l1.78.21-11.46.66Z"/><path class="cls-40" d="M108.94,84.67c0,1.26-.09,2.51-.13,3.77-1.75,0-3.51.16-5.25,0-2.69-.23-3.53.9-3.5,3.54.17,13.7.2,27.4.28,41.11l-.06,4.36-1-1.73c0-1.45,0-2.9,0-4.35s0-2.9,0-4.35v-.73q0-4.89,0-9.78V113c0-1.17,0-2.34,0-3.51h0V109s0,0,0,0c0-.67,0-1.35,0-2,0-.1,0-.2,0-.31s0-.38,0-.57,0-.28,0-.41c.42-3-1-3.33-3.36-2.43l.78-18.41h0l5.27-.12Z"/><path class="cls-41" d="M120.5,83.88l-5,.14h0Z"/><path class="cls-49" d="M141.73,118c-.26,3.63,0,7.31-.38,10.92a3.6,3.6,0,0,1-2.45,2.48,101,101,0,0,1-11.8,0c-.81,0-1.57-1.14-2.36-1.76,0-2.05.07-4.1.11-6.16,0-.58,0-1.18,0-1.77,0-.83,0-1.67.08-2.51,0-4.34,3.7-3.62,6.25-4.43l.37,0,.35-.12,3.52,0a19.47,19.47,0,0,0,3,.14C140.89,114.54,141.91,115.37,141.73,118Z"/><path class="cls-49" d="M125.68,104.33c0,.22,0,.45,0,.68h0C125.65,104.78,125.67,104.55,125.68,104.33Z"/><path class="cls-50" d="M117.92,136.65l-1-.22h0Z"/><path class="cls-51" d="M123.14,136.76c0,.24,0,.48,0,.72l-4.33.05-.61-.1-.61-.11h0c.12-.22.24-.43.34-.66l1.7-.14Z"/><path class="cls-52" d="M124,136.74l-.89.74c0-.24,0-.48,0-.72Z"/><path class="cls-53" d="M146.86,83.28l-1.78,3.26a1.26,1.26,0,0,1-.78.14l-10.62-.1c.6-.84,1.19-1.68,1.79-2.51l8.71-.86Z"/><path class="cls-54" d="M149.38,86.84l-3.49.68L144,87.35a5.26,5.26,0,0,1,.34-.67,1.26,1.26,0,0,0,.78-.14Z"/><path class="cls-56" d="M117.92,136.65c-.1.23-.22.44-.34.66h0l-10.3,0c0-.23,0-.47.07-.7l2.63-.07,1.76,0,2.66-.12H117Z"/><path class="cls-36" d="M102.12,137.63l-5.29,4.2-.43.06-.43,0-.18-1.69c.08-.61.17-1.21.24-1.81l.08-.05v-9.54c-.11-2.06-.21-4.12-.32-6.18.1-1.17.19-2.35.29-3.52l3.22-2.53q0,4.89,0,9.78V127c0,1.45,0,2.9,0,4.35v4.36h0l1,1.73Z"/><path class="cls-58" d="M99.43,105.72c0,.13,0,.27,0,.41s0,.38,0,.57,0,.21,0,.31c0,.67,0,1.35,0,2h0c0,.16,0,.31,0,.47h0L96.08,112l-.3.16c0-1.2,0-2.4,0-3.59s0-2.34,0-3.51c.08-.58.17-1.16.26-1.74h0C98.43,102.39,99.85,102.7,99.43,105.72Z"/><path class="cls-59" d="M99.31,109.51c0,1.17,0,2.34,0,3.51v3.5l-3.22,2.53c-.1-.58-.19-1.16-.29-1.75.1-1.77.2-3.55.29-5.33l3.23-2.46Z"/><path class="cls-60" d="M124.86,121.69c0,.59,0,1.19,0,1.77-.57,1.17-1.14,2.34-1.72,3.5l-2.65,0h-7l-4.37,0c-.24-.36-.49-.72-.73-1.09-.06-.52-.13-1-.19-1.55q.31-18,.64-35.9c0-1.26.09-2.51.13-3.77l1.26-16.42,2.27,0c1.24.24,2.47.5,3.71.75q0,3.52,0,7c0,.83-.07,1.67-.1,2.5-.19,1.82-.39,3.63-.58,5.44h0c0,.29,0,.6,0,.89h0c0,.84-.06,1.68-.08,2.52l-.06.91c-.06,1.29-.13,2.58-.18,3.87-.3,8.42-.29,8.42,8,8.42.51,6.18.51,6.14-5.58,6.25a23.36,23.36,0,0,0-4,.78.83.83,0,0,0-.14.76q-.33,6.61-.67,13.25l1.6,0h5.25Z"/><path class="cls-61" d="M115.49,84.92h0c0-.29,0-.6,0-.89h0l5-.14,2.61.24Z"/><path class="cls-62" d="M127.49,84.11l-2.6,3.33-2.52.1-7-.1c0-.84,0-1.68.08-2.52h0l7.62-.79.9-.28h1.76Z"/><path class="cls-63" d="M135.47,84.07c-.6.83-1.19,1.67-1.79,2.51l-.89.77-7.9.09,2.6-3.33.89-.33,5.18.14Z"/><path class="cls-64" d="M144.18,83.21l-8.71.86-1.91-.15,4.49-.8Z"/><path class="cls-65" d="M129.76,113.75c-.17.27-.34.54-.5.81h0Z"/><path class="cls-66" d="M129.76,113.75c-.17.27-.34.54-.5.81h0Z"/><path class="cls-49" d="M138.48,94.94a19.47,19.47,0,0,1-3-.14l-3.52,0-.35.12-.37,0c-2.55.81-6.2.09-6.25,4.43,0,.84,0,1.68-.08,2.51,0,.59,0,1.19,0,1.77,0,2.06-.07,4.11-.11,6.16.79.62,1.55,1.72,2.36,1.76a101,101,0,0,0,11.8,0,3.6,3.6,0,0,0,2.45-2.48c.35-3.61.12-7.29.38-10.92C141.91,95.53,140.89,94.7,138.48,94.94ZM125.64,105c0-.23,0-.46,0-.68,0,.22,0,.45,0,.68Z"/><path class="cls-67" d="M131.19,114.75c-2.55.81-6.2.09-6.25,4.43,0-1.5,0-3,0-4.5l4.36-.11c.33,0,.65.05,1,.09Z"/><path class="cls-68" d="M117,136.42h0Z"/><path class="cls-64" d="M144.3,86.68a5.26,5.26,0,0,0-.34.67l-1.52.11-4.4.1-2.63,0-2.62-.24.89-.77Z"/><path class="cls-69" d="M124.15,105.82c-.05.61-.09,1.23-.14,1.85l-3.53,0-6.91,0a23.36,23.36,0,0,1,4-.78c6.09-.11,6.09-.07,5.58-6.25Z"/><path class="cls-61" d="M122.37,87.54l-7,.81.06-.91h0Z"/><path class="cls-36" d="M99.3,126.3v5.08c0-1.45,0-2.9,0-4.35v-.73Z"/><path class="cls-73" d="M83.16,107.49q0-3.08,0-6.14v-7c-.05-2-.09-4-.14-6l-.4,0-.39.06-.91-.06-2.66.08-3.49.69-1.94-.18-1.52.12-4.39.09-2.64,0-2.61-.23L54.15,89l-2.52.11-7,.81c-.06,1.29-.13,2.58-.17,3.87-.3,8.42-.3,8.42,8,8.42l1,5.17-.15,1.85-3.53,0-6.91,0a.81.81,0,0,0-.13.75q-.35,6.63-.67,13.26l1.6,0h5.25l5.24,0c0-.84.06-1.67.08-2.51,0-1.5,0-3-.05-4.5l4.37-.12h0c.16-.27.33-.54.5-.81-.16.27-.33.54-.5.81l1,.09,1,.1.37,0,.34-.12,3.52,0a20.87,20.87,0,0,0,3,.13c2.41-.23,3.43.59,3.25,3.18-.25,3.63,0,7.3-.37,10.92a3.63,3.63,0,0,1-2.45,2.48,103.39,103.39,0,0,1-11.81,0c-.81,0-1.57-1.15-2.35-1.76q0-3.09.11-6.16l-1.73,3.5-2.65,0h-7l-4.38,0-.73-1.1c-.06-.51-.13-1-.19-1.54q.33-18,.64-35.91c-1.75,0-3.5.17-5.24,0-2.7-.23-3.54.89-3.51,3.53.18,13.7.21,27.41.29,41.12l-.06,4.36,1.84.16-.08-.27,1.8.29,3.43-.3c0-.24.05-.47.08-.71l2.62-.07H41c.88,0,1.77-.08,2.65-.12h2.58l.95.22,1.69-.13,3.53.25.87,0,9.65-.11a.69.69,0,0,1,.74-.08l10.64-.63c8.62-.6,8.61-.6,8.66-9.43,0-1.31.12-2.62.18-3.93v-3.5c0-2.34,0-4.68,0-7ZM71,99.7c-.25,3.63,0,7.3-.37,10.92a3.63,3.63,0,0,1-2.45,2.48,103.39,103.39,0,0,1-11.81,0c-.81,0-1.57-1.15-2.35-1.76q0-3.09.11-6.16v-1.77c0-.84.06-1.67.08-2.51.06-4.34,3.7-3.62,6.26-4.43l.37,0,.34-.12,3.52,0a20.87,20.87,0,0,0,3,.13C70.15,96.29,71.17,97.11,71,99.7Z"/><path class="cls-71" d="M87.62,84.68h0c0,2.34-.07,4.67-.11,7l-4.36,2.65c-.05-2-.09-4-.14-6,.61-1.24,1.22-2.47,1.83-3.72l.16-1,2.21.27A1.25,1.25,0,0,0,87.62,84.68Z"/><path class="cls-21" d="M84.84,84.65c-.61,1.25-1.22,2.48-1.83,3.72l-.4,0-.39.06-.91-.06-2.66.08-4.31-.29,1.78-3.26-.06-.35,4.24.11,3.66,0A8.58,8.58,0,0,0,84.84,84.65Z"/><path class="cls-22" d="M87.51,91.68c0,2,0,4.1,0,6.15l-4.35,3.52v-7Z"/><path class="cls-72" d="M84.75,141.49c-4,0-8.09.17-12.13.28l-12.32-.06,2.63-3.49a.69.69,0,0,1,.74-.08l10.64-.63c8.62-.6,8.61-.6,8.66-9.43,0-1.31.12-2.62.18-3.93l4.35-2.62c.07,5.63.07,11.26.23,16.89C87.79,140.64,87,141.51,84.75,141.49Z"/><path class="cls-27" d="M48.06,139.12l-2.61,3.36-9.69.86-6.18.14c1.18-1.41,2.35-2.83,3.53-4.25l3.43-.3,10.3,0,.61.11.61.11Z"/><path class="cls-28" d="M62.93,138.22l-2.63,3.49-3.52.8-9.56.18-1.77-.21,2.61-3.36h0l4.34-.06.88-.73Z"/><path class="cls-29" d="M87.5,97.83v7l-4.34,2.64q0-3.08,0-6.14Z"/><path class="cls-30" d="M87.5,104.85V111l-4.34,2.65v-6.15Z"/><path class="cls-31" d="M87.5,111v6.15l-4.35,3.51c0-2.34,0-4.68,0-7Z"/><path class="cls-32" d="M87.5,121.53l-4.35,2.62v-3.5l4.35-3.51Z"/><path class="cls-33" d="M33.11,139.23c-1.18,1.42-2.35,2.84-3.53,4.25l-3.48-.06,5.29-4.21-.08-.27Z"/><path class="cls-33" d="M45.45,142.48l1.77.21-11.46.65Z"/><path class="cls-40" d="M38.21,86.26c-.05,1.25-.09,2.51-.14,3.76-1.75,0-3.5.17-5.24,0-2.7-.23-3.54.89-3.51,3.53.18,13.7.21,27.41.29,41.12l-.06,4.36-1-1.73c0-1.45,0-2.9,0-4.35s0-2.9,0-4.35v-.74c0-3.25,0-6.51,0-9.77,0-1.17,0-2.33,0-3.5V111.1h0c0-.15,0-.3,0-.46h0c0-.68,0-1.35,0-2,0-.1,0-.21,0-.31s0-.39,0-.58,0-.27.05-.4c.41-3-1-3.34-3.36-2.43l.78-18.41h0l5.28-.13Z"/><path class="cls-41" d="M49.76,85.47l-5,.14h0Z"/><path class="cls-49" d="M71,119.54c-.25,3.63,0,7.3-.37,10.92a3.63,3.63,0,0,1-2.45,2.48,103.39,103.39,0,0,1-11.81,0c-.81,0-1.57-1.15-2.35-1.76q0-3.09.11-6.16v-1.77c0-.84.06-1.67.08-2.51.06-4.34,3.7-3.62,6.26-4.43l.37,0,.34-.12,3.52,0a20.87,20.87,0,0,0,3,.13C70.15,116.13,71.17,117,71,119.54Z"/><path class="cls-49" d="M55,105.91c0,.23,0,.45,0,.68h0C54.91,106.36,54.93,106.14,55,105.91Z"/><path class="cls-50" d="M47.19,138.23l-.95-.21h0Z"/><path class="cls-51" d="M52.41,138.35c0,.24,0,.47,0,.71l-4.34.06-.61-.11-.61-.11h0c.13-.22.24-.44.35-.67l1.69-.13Z"/><path class="cls-52" d="M53.28,138.33l-.88.73c0-.24,0-.47,0-.71Z"/><path class="cls-53" d="M76.12,84.87l-1.78,3.26a1.3,1.3,0,0,1-.78.13l-10.62-.09,1.8-2.51,8.7-.86Z"/><path class="cls-54" d="M78.65,88.42l-3.49.69-1.94-.18c.11-.23.22-.45.34-.67a1.3,1.3,0,0,0,.78-.13Z"/><path class="cls-56" d="M47.19,138.23c-.11.23-.22.45-.35.67h0l-10.3,0c0-.24.05-.47.08-.71l2.62-.07H41c.88,0,1.77-.08,2.65-.12h2.58Z"/><path class="cls-36" d="M31.39,139.21l-5.29,4.21-.43.06-.43,0-.18-1.7.24-1.8.07-.06v-9.53q-.15-3.09-.31-6.18c.09-1.18.19-2.35.28-3.53l3.22-2.52c0,3.26,0,6.52,0,9.77v.74c0,1.45,0,2.9,0,4.35v4.35h0l1,1.73Z"/><path class="cls-58" d="M28.7,107.31c0,.13,0,.27-.05.4s0,.38,0,.58,0,.21,0,.31c0,.67,0,1.34,0,2h0v.46h0l-3.22,2.46-.3.16c0-1.2,0-2.4,0-3.59s0-2.35,0-3.52c.09-.58.18-1.15.26-1.73h0C27.69,104,29.11,104.29,28.7,107.31Z"/><path class="cls-59" d="M28.58,111.09c0,1.17,0,2.34,0,3.52s0,2.33,0,3.5l-3.22,2.52c-.09-.58-.19-1.16-.28-1.74.09-1.77.19-3.55.29-5.33l3.22-2.46h0Z"/><path class="cls-60" d="M54.12,123.28v1.77c-.57,1.17-1.15,2.33-1.72,3.5l-2.66,0h-7l-4.37,0c-.25-.36-.49-.73-.74-1.1-.06-.51-.13-1-.19-1.54q.33-18,.64-35.91c0-1.25.09-2.51.14-3.76.41-5.48.84-11,1.25-16.42l2.27,0,3.72.75c0,2.35,0,4.7,0,7,0,.84-.07,1.67-.11,2.51l-.57,5.43h0v.89h0c0,.84,0,1.68-.08,2.52l-.06.92c-.06,1.29-.13,2.58-.17,3.87-.3,8.42-.3,8.42,8,8.42.51,6.18.51,6.13-5.57,6.25a22.71,22.71,0,0,0-4,.78.81.81,0,0,0-.13.75q-.33,6.63-.67,13.26l1.6,0h5.25Z"/><path class="cls-61" d="M44.75,86.5h0v-.89h0l5-.13,2.62.24Z"/><path class="cls-62" d="M56.76,85.69,54.15,89l-2.52.11-7-.11c0-.84,0-1.68.07-2.52h0l7.63-.79.89-.29H55Z"/><path class="cls-63" d="M64.74,85.66l-1.8,2.51-.88.77L54.15,89l2.61-3.33c.3-.1.59-.22.89-.33l5.17.15Z"/><path class="cls-64" d="M73.44,84.8l-8.7.86-1.92-.15,4.49-.8Z"/><path class="cls-65" d="M59,115.34c-.16.27-.33.54-.5.81h0C58.68,115.88,58.85,115.61,59,115.34Z"/><path class="cls-66" d="M59,115.34c-.16.27-.33.54-.5.81h0C58.68,115.88,58.85,115.61,59,115.34Z"/><path class="cls-49" d="M67.74,96.52a20.87,20.87,0,0,1-3-.13l-3.52,0-.34.12-.37,0c-2.56.81-6.2.09-6.26,4.43,0,.84-.05,1.67-.08,2.51v1.77q-.06,3.08-.11,6.16c.78.61,1.54,1.72,2.35,1.76a103.39,103.39,0,0,0,11.81,0,3.63,3.63,0,0,0,2.45-2.48c.35-3.62.12-7.29.37-10.92C71.17,97.11,70.15,96.29,67.74,96.52ZM54.9,106.59c0-.23,0-.45.05-.68,0,.23,0,.45,0,.68Z"/><path class="cls-67" d="M60.46,116.34c-2.56.81-6.2.09-6.26,4.43,0-1.5,0-3-.05-4.5l4.37-.12,1,.09Z"/><path class="cls-68" d="M46.24,138h0Z"/><path class="cls-64" d="M73.56,88.26c-.12.22-.23.44-.34.67l-1.52.12-4.39.09-2.64,0-2.61-.23.88-.77Z"/><path class="cls-69" d="M53.42,107.4l-.15,1.85-3.53,0-6.91,0a22.71,22.71,0,0,1,4-.78c6.08-.12,6.08-.07,5.57-6.25Z"/><path class="cls-61" d="M51.63,89.13l-7,.81.06-.92h0Z"/><path class="cls-36" d="M28.56,127.88V133c0-1.45,0-2.9,0-4.35v-.74Z"/></svg>