<svg id="Layer_1" data-name="Layer 1" xmlns="http://www.w3.org/2000/svg" xmlns:xlink="http://www.w3.org/1999/xlink" viewBox="0 0 188.64 188.64"><defs><style>.cls-1{fill:url(#radial-gradient);}.cls-2{fill:#0277bc;}.cls-2,.cls-3,.cls-4{fill-rule:evenodd;}.cls-3{fill:#7bb242;}.cls-4{fill:#fefefe;}.cls-5{fill:none;stroke-dasharray:10;}.cls-5,.cls-6{stroke:#fff;stroke-linecap:round;stroke-miterlimit:10;stroke-width:3px;}.cls-6{fill:#fff;}</style><radialGradient id="radial-gradient" cx="94.32" cy="94.32" r="94.32" gradientTransform="translate(179.89 -8) rotate(84.91)" gradientUnits="userSpaceOnUse"><stop offset="0" stop-color="#fff"/><stop offset="0.13" stop-color="#f4d6d2"/><stop offset="0.28" stop-color="#e9aaa2"/><stop offset="0.44" stop-color="#e0867a"/><stop offset="0.59" stop-color="#d96a5c"/><stop offset="0.73" stop-color="#d45646"/><stop offset="0.87" stop-color="#d14a38"/><stop offset="1" stop-color="#d04634"/></radialGradient></defs><title>Artboard 17</title><circle class="cls-1" cx="94.32" cy="94.32" r="94.32" transform="translate(-8 179.89) rotate(-84.91)"/><path class="cls-2" d="M94.42,24.82c39.08.08,69.9,31,69.78,70A69.89,69.89,0,0,1,24.43,94.6C24.49,55.5,55.33,24.74,94.42,24.82Z"/><path class="cls-3" d="M155.54,97.25c1.26,13.82-6.31,25.4-15.48,36.34a90.22,90.22,0,0,1-8.68,8.59c-1.81,1.65-2.91,2.3-3.68-.92-1.49-6.17-4.15-12-5.21-18.31-.73-4.33-3.87-6.06-7.73-6.8a51.22,51.22,0,0,0-6.07-.67c-6.29-.44-9.21-5.17-6.56-11,1.42-3.12,3.15-6.11,4.8-9.12a15.25,15.25,0,0,0,2.27-6c.23-3.25.89-6,4.45-7.06.32-.1.84-.51.81-.73-.6-6,5.27-7.13,7.93-10.66a16.42,16.42,0,0,1,2.45-2.41c2-1.72,2.28-3.06-.72-3.76-3.36-.79-3.83-2.26-1.53-5,2.13-2.51,3.76-5.45,5.87-8,3.34-4,7.18-4.19,10.2,0C149,66.09,155.76,74.09,155.54,97.25Z"/><path class="cls-3" d="M59.46,105.7a41.31,41.31,0,0,0-.94-4.71c-1.28-4-5.18-4-8.2-4.37-2.58-.33-3.56,2.53-4.12,4.77-.5,2,0,3.7,2.64,3.24,2.13-.37,3.09.54,3.95,2.48,1.61,3.63,4.18,5.63,8.67,5.31,4.76-.33,9.67-.8,14.33,1.22,1.37.59,2.68,1.16,2.93,2.69.75,4.53,4.38,5.47,7.9,6.72,2.76,1,7,.17,7.1,4.82.15,4.88,0,10-4.75,12.89a25.12,25.12,0,0,0-9.16,9.94c-1.33,2.45-2.81,3.46-5.42,2a17.87,17.87,0,0,0-2.1-.93c-4.6-1.85-8.4-4-8.57-10.05-.1-3.85-1.91-7.59-4-11a17,17,0,0,1-2.06-9.57c.2-6.48-1.17-8.33-7.7-10.41s-11.21-6.78-15-12.35c-2.48-3.61-1.72-7.44-1.14-11.41A65,65,0,0,1,48.28,54.21c5.2-6.29,21.47-10.74,28.4-5.4,1.94,1.5,3.82,3,4.93,5.23,1.4,2.8.39,4.49-2.77,4.46-2.27,0-4.61-.14-6.27-2.15a3.17,3.17,0,0,0-3.71-1.22c-4,1.29-9.3,8.88-9.18,13.23,0,1.72.35,3.31,2,4.24s2.91-.25,4.11-1.12c2.17-1.56,4.18-3.35,6.41-4.8,3.83-2.48,8.27-1.1,11.46,3.37s3,7.53-.92,10.64c-3.51,2.78-7.35,4.9-12.12,4.92-3.69,0-7.83,4.11-8.69,8.51-.75,3.81-1.1,7.7-1.63,11.55Z"/><path class="cls-3" d="M96.45,33.6a77.43,77.43,0,0,1,16.44,2.9c3.32,1.07,3.45,2.79,2.42,5.78-2.68,7.75-9.13,12-15,16.71-1.7,1.36-3.77,4.17-5.65,2.92-2.34-1.53-2.2-5.07-1.52-7.75a27.56,27.56,0,0,0,1-10.89c-.28-1.91-.44-3.84-3.19-3.82a2,2,0,0,1-2.17-2.17,2.64,2.64,0,0,1,1.71-2.71A11.37,11.37,0,0,1,96.45,33.6Z"/><path class="cls-4" d="M74.74,79.77c0-.27,0-.54,0-.81,0-.88-.85-1.1-1.36-1.57-.71-.66-1.49-1.24-2.23-1.85-.49-.4-1.12-.79-.76-1.53a1.59,1.59,0,0,1,1.85-.85,8.35,8.35,0,0,1,2.23.6c2.39,1.23,4.45.57,6.41-.94.27-.28.4-.57.07-.9-2.66-2.25-5.32-4.49-8-6.77-.58-.5-1.57-.86-1.08-1.94a2.51,2.51,0,0,1,3-.81c1.79.74,3.56,1.51,5.34,2.26.53.22,1.09.39,1.63.58a6.33,6.33,0,0,1,3.6,1.52c1,.44,1.93.86,2.88,1.33.68.33,1.21,0,1.76-.32a74.64,74.64,0,0,1,7.72-3.93c.6-.26.84-.26,1.09.65.71,2.57-.81,3.42-2.69,4.26-1.32.6-2.52,1.46-3.84,2.06a2.94,2.94,0,0,0-1.83,2.52c-.64,4.36-1.36,8.7-2,13.06a2.46,2.46,0,0,1-.76,1.81c-.54.4-1.08.94-1.82.7s-.69-1-.78-1.58c-.54-3.78-1.1-7.56-1.68-11.51-1.22.67-2.35,1.31-3.48,1.92a1.79,1.79,0,0,0-.8,1.31c-.37,1.36-.8,2.69-1.17,4a1.67,1.67,0,0,1-1.78,1.39c-.85-.07-.86-.88-.94-1.58C75.1,81.86,74.91,80.82,74.74,79.77Z"/><path class="cls-5" d="M82.86,74.29C57.61,65,27,96.73,31.73,121.35"/><path class="cls-5" d="M31.86,121.86c18-20,59.88-6.14,67.16,17.85"/><path class="cls-5" d="M136.13,81.5c13.69,23.17-12,59-37.11,58.76"/><path class="cls-5" d="M134.55,80.74c-15.1-8.31-19.15-37.59-8.76-46.25"/><path class="cls-6" d="M34.91,121.35a3,3,0,1,1-3-3A3,3,0,0,1,34.91,121.35Z"/><path class="cls-6" d="M139.35,81.5a3.06,3.06,0,1,1-3.06-3A3.05,3.05,0,0,1,139.35,81.5Z"/><path class="cls-6" d="M102.07,140.26a3,3,0,1,1-3-3A3,3,0,0,1,102.07,140.26Z"/></svg>